<?xml version="1.0" encoding="utf-8"?>
<svg width="574.55" height="570.24" viewBox="0 0 574.55 570.24" xmlns="http://www.w3.org/2000/svg" xmlns:bx="https://boxy-svg.com">
  <defs>
    <clipPath id="a">
      <rect x="279.43" y="181.81" width="158.18" height="35.41" style="fill: none"/>
    </clipPath>
    <clipPath id="b">
      <rect x="195.78" y="238.81" width="168" height="167" style="fill: none"/>
    </clipPath>
    <style bx:fonts="Finger Paint">@import url(https://fonts.googleapis.com/css2?family=Finger+Paint%3Aital%2Cwght%400%2C400&amp;display=swap);</style>
  </defs>
  <path d="M232.52,561.33c96,24.23,196.43-9.66,254.32-68.68s79.9-138.23,85.37-216.93c3.24-45.81,1.58-93.18-16.41-138.86C537.78,91.48,501.38,47.64,450.22,23c-83-39.46-183.46-20.92-258,16.44C147.22,62,107.57,90.82,74.91,124.62,23,179.08-98.25,436.65,161.72,543.18" style="fill: none;stroke: #fff;stroke-linecap: square;stroke-width: 2px;opacity: 0.07999999821186066;isolation: isolate"/>
  <path d="M236.09,520.07c72.69,24.35,152.26,4.09,200.44-38.09s69.83-102,78.69-162.5c5.19-35.19,6.7-71.87-4.51-108.2-11.24-36.11-36.78-72.11-74.83-94.12C374.09,81.8,295.43,90.21,235.7,114.69c-36.12,14.73-68.43,34.66-95.65,58.84C96.74,212.54-12,404.32,182.47,501.89" style="fill: none;stroke: #fff;stroke-linecap: square;stroke-width: 2px;opacity: 0.07999999821186066;isolation: isolate"/>
  <path d="M223.91,442.74c47.75,25.5,105.53,20.75,144-2.95S428.55,377,441.82,335.91c7.76-23.89,13.12-49.25,9.58-75.86-3.58-26.46-17.13-54.52-41-74.32-38.86-31.88-94.61-35.28-139.07-25.26a235,235,0,0,0-73.51,29.73c-34.74,22.06-133,142.79-9.06,233.58" style="fill: none;stroke: #fff;stroke-linecap: square;stroke-width: 2px;opacity: 0.07999999821186066;isolation: isolate"/>
  <path d="M256.17,194.93c63-7.12,147.51,40.54,154.63,103.54s-48.05,115.66-111,122.77a114.9,114.9,0,0,1-127-101.3C165.69,256.87,193.24,202.05,256.17,194.93Z" style="fill: #51b36d"/>
  <g style="clip-path: url(#a)">
    <g>
      <path d="M293.24,212.88c32.38,2.43,64.77-.34,97.16.87,14.48.52,29,2.78,43.29,1.22" style="fill: #fff"/>
      <path d="M293.07,214.62c23,1.56,46.19.87,69.37.52,23.86-.17,48.07,3.47,71.93,1.39,2.73-.17,1.53-3.47-.85-3.3-22.67,2.08-45.85-1.56-68.52-1.39-23.86.18-47.73,1.22-71.59-.52C290.68,211.15,290.34,214.45,293.07,214.62Z" style="fill: #1a2e44"/>
      <path d="M435.56,213.06c-10.22,0-21.64-.52-28.63-8-4.43-4.86-6.31-11.8-10.4-17a11.33,11.33,0,0,0-6.65-4.69c-2.55-.52-5.11.52-7.32,1.74a21.15,21.15,0,0,0-8.19,9.55c-1.53,3.64-2.89,8.33-7,8.33a7.81,7.81,0,0,1-2.73-.7c-4.77-2.6-7.67-7.81-13-9.89a10.18,10.18,0,0,0-5.11-.69c-6,1.21-5.79,8-9.54,11.28-2.05,1.73-4.95,2.26-7.67,2.6-15.69,1.91-31.37,3.47-47.22,4.52-1,0-1,1.56,0,1.73a148.89,148.89,0,0,0,19.6,1.56" style="fill: #fff"/>
      <path d="M435.56,211.49c-10.05,0-21.64-.34-28.46-9.2-4.26-5.72-6-14.06-12.1-18.4-4.27-2.95-9.21-2.43-13.64,0a22.34,22.34,0,0,0-6.31,5.73,27.3,27.3,0,0,0-2.72,4.86c-1.71,3.3-1,4.86-5.29,5.21-6.3.52-10.57-8.85-17.55-9.55-5.63-.52-7.84,2.43-10.74,6.6-6.82,10.07-23.52,8.85-34.6,9.89-5.63.53-11.25,1.05-16.88,1.39-2.9.18-5.28-.34-7.33,1.74-.51.52-.85,1.39-.17,1.91,3.75,4.69,16.71,3,22.16,3.12,2.73,0,2.39-3.12-.17-3.3-1.36,0-15.51-1.56-16-.34.34-1,15.51-1.22,16.87-1.39,9.72-.87,21-.7,30.17-3.3,2.9-.87,5.12-1.74,7.16-4,1.71-2.09,2.05-5.21,3.92-7.12,8-8,15.51,8.85,23.18,9,4.26,0,6.31-3.3,8-6.77,3.24-5.9,9.72-17.71,18.41-9.9,3.75,3.3,5.46,8.68,7.84,12.85,7.5,12.84,21,14.06,34.43,14.06C438.46,214.62,438.12,211.49,435.56,211.49Z" style="fill: #1a2e44"/>
    </g>
  </g>
  <g style="clip-path: url(#b)">
    <g>
      <path d="M333.93,401.53c0,2.21-12.29,4-27.49,4-7.18,0-16.72.69-21.55,0-5.39-.69-5.81-2.89-5.81-4,0-2.21,23.49-3.59,38.69-3.59S333.93,399.32,333.93,401.53Z" style="fill: #1a2e44"/>
      <path d="M265,340.53c4.15,0,7.46.27,7.33.69-.83,2.21-16.31,31.19-17.69,34.23-1,2.2-18.65,19.18-34.68,19.18h-6.9c-16.17.14-16.31-18.49-15.48-20.7,1.11-3.31,15.2-30.78,15.48-32.16.13-.41,3.17-.83,7.18-.83C230.73,340.67,251.45,340.53,265,340.53Z" style="fill: #fff"/>
      <path d="M265,342.18c1.52,0,5.25-.41,6.63.56-.13-.69-.27-1.52-.41-2.21-4,10.21-10.22,19.74-15.2,29.4-5.94,11.59-19.34,20.84-32.33,22.77-5.66.83-14.23,1.24-18.92-2.21-4.29-3.17-7.19-10.49-5.95-15.87,1-4.28,4.15-8.83,6.08-12.7,2.77-5.66,5.67-11.18,8.29-16.84,1.38-2.9.83-2.48,3.87-2.2,4.7.27,9.53-.28,14.23-.28,11.19-.28,22.38-.28,33.71-.42,1.66,0,1.94-3.45.14-3.45-11.6,0-23.21.14-34.68.28-5.11,0-15.47-1.93-18.65,2.62-3.59,5.25-5.94,12.15-8.84,17.95-2.21,4.55-5.8,9.66-6.77,14.76a18.25,18.25,0,0,0,18,22c14.92.14,31.91-6.63,41-19.05,3.46-4.69,5.67-10.76,8.29-15.87,3.32-6.35,7.46-12.7,9.95-19.46.28-.69.41-1.8-.41-2.21-1.8-1.24-5.95-.83-8-.83C263.47,338.87,263.06,342.18,265,342.18Z" style="fill: #1a2e44"/>
      <path d="M302.43,341.08c.28,12.42,1.25,48,1.66,57,0,1.93-.69,3.17-1.38,3.59-2.63,1.24-8.7,1.38-11.47-.55a4.08,4.08,0,0,1-1.79-3.32c-.42-14.63-1.11-44.57-1.39-57" style="fill: #fff"/>
      <path d="M301.19,340.8c.28,9.39.55,18.64.83,28q.21,8.07.41,16.15c.14,3.59,1,8.14.42,11.59-.69,3.87-4.7,5.66-8.57,3.87s-3.45-5.94-3.59-9.39c-.14-5.93-.28-11.73-.41-17.66-.28-10.63-.56-21.53-.83-32.44,0-1.93-2.63-2.62-2.63-.27.28,14.07.69,28.15,1,42.23.14,5-1.11,12.56.83,17.11s8.15,4.83,12.29,3.87,4.42-3.87,4.42-7.87c0-5.52-.27-10.9-.41-16.42-.41-12.84-.69-25.67-1.11-38.51C303.68,339.29,301.05,338.6,301.19,340.8Z" style="fill: #1a2e44"/>
      <path d="M268.31,341.36c13.68,0,79-.14,86.49-.83,4-.28,7-2.9,7-5.8-.14-9.94,0-41.27,0-65.14a29.32,29.32,0,0,0-29.29-29.4H249" style="fill: #fff"/>
      <path d="M268.17,342.74c21.14,0,42.14-.14,63.28-.28,7.46-.14,15.47.55,22.93-.41,11.74-1.52,8.84-13.25,8.84-22.09,0-16.14.14-32.15.14-48.3,0-13-5.94-24.57-18.24-30.09C339.05,239,332.83,239,326.33,239H300.78c-17-.14-34.41-.14-51.81-.14-1.94,0-2.35,2.76,0,2.76,27.49,0,55.12-.55,82.61,0,12.3.28,23.35,7.45,27.22,19.32,2.21,6.9,1.38,14.63,1.38,21.67v42.51c0,5.94,1.52,12.15-5.94,14.22-6.35,1.65-14.78.27-21.14.41-21.55.28-43.1.28-64.79.28C266.37,340,266,342.74,268.17,342.74Z" style="fill: #1a2e44"/>
      <path d="M286.27,341.36a91.93,91.93,0,0,1,9,5C297.6,348.12,303,349,303,349v-7.59Z" style="fill: #1a2e44"/>
      <path d="M298,261.24q16-.21,31.92,0c1.93,0,4,.14,5.94.14,1.1,0,2.35.41,1.93,0a54,54,0,0,0-.41,6.07q0,4.56-.42,9.11c-.14,1.66,3.32,1.66,3.46-.14q.4-5,.41-9.93c0-1.25.55-5.11-.27-6.35-1.11-1.8-3.32-1.24-5.39-1.38q-18.66-.42-37.31,0C295.8,258.76,295.94,261.24,298,261.24Z" style="fill: #1a2e44"/>
      <path d="M326.61,260.69c0,4.83-.55,10.35.28,15,.83,4.28,7.18,1,9.94,1.52,1.66.28,3-2.9,1.25-3.17a16.63,16.63,0,0,0-5.25.41c-.69.14-2.49.55-3,.14,0,0,.14.41,0-.28-.14-.27,0-.82,0-1.1-.14-4.55-.28-9-.28-13.53C329.51,257.52,326.61,259,326.61,260.69Z" style="fill: #1a2e44"/>
      <path d="M218.57,341.36c-4.28,0-7.46-2.21-7.46-5,.14-16.43.55-45.41.83-67.35a29.24,29.24,0,0,1,29.43-28.85h6.91a29.5,29.5,0,0,1,29.29,29.4c-.14,23.87-.14,55.2,0,65.14,0,2.9-3,5.52-7.05,5.8C260,341.36,232,341.36,218.57,341.36Z" style="fill: #1a2e44"/>
      <path d="M219.12,340c-7.87-.69-6.49-7-6.49-12.56,0-4.7.14-9.53.14-14.22q.21-16.35.41-32.71c.14-11-.27-21.81,7.88-30.36,6.91-7.18,15.47-8.56,24.73-8.56,9.67.14,18.65,3.45,24.59,11.59s5.53,17.81,5.39,27.61c0,10.35-.14,20.84-.14,31.19,0,6.76,1.38,15.18,0,21.81-1.8,8.69-21.83,5.93-28,5.93q-14.51.21-29,0c-1.79,0-2.76,2.76-.55,2.76,11.33,0,22.52,0,33.85-.14,6.77-.14,19.06,1.8,24.59-3.17,4.84-4.42,2.35-15.87,2.35-21.67,0-13,0-26,.14-39.06,0-11.18,0-21.53-8.15-30.22-6.64-7-15.2-9.53-24.6-9.67-18.79,0-35.09,10.77-35.92,30.92-.69,15.6-.55,31.19-.69,46.79-.14,6.35-.41,12.69-.14,19,.28,5.25,3.46,7,8.43,7.46C219.54,342.87,221.33,340.11,219.12,340Z" style="fill: #1a2e44"/>
      <path d="M288.2,403.19c-2.62-6.9-3.87-15.18-8.15-21.26-.27-.41-1.52-.41-1.24.42,2.9,7,5.39,14.21,5.52,21.8a5.57,5.57,0,0,0,1.39-.13,53.27,53.27,0,0,1-4.15-9c-.14-.56-1.52-.56-1.38.13a53.75,53.75,0,0,1,1.52,8.15,3.19,3.19,0,0,1,1.11-.28,31.55,31.55,0,0,1-5.95-6.9c-.41-.55-1.65-.28-1.1.41a38.21,38.21,0,0,0,6.08,7.18c.27.28,1.24.28,1.1-.28a55.44,55.44,0,0,0-1.52-8.14,5.11,5.11,0,0,0-1.38.14,53.27,53.27,0,0,0,4.15,9c.27.41,1.38.69,1.38-.14-.14-7.86-2.63-14.9-5.53-22.08l-1.24.41c4.28,5.94,5.52,14.22,8,21C287.1,404,288.48,403.88,288.2,403.19Z" style="fill: #1a2e44"/>
      <path d="M313.35,400.84c1.79-5,2.76-11.18,5.94-15.59l-1.24-.42c-2.22,5.38-4,10.63-4.15,16.43,0,.55,1,.69,1.24.27a42.4,42.4,0,0,0,3.18-6.76,4,4,0,0,0-1.38-.28,29.92,29.92,0,0,0-1.11,6.08.79.79,0,0,0,1.25.55,21.74,21.74,0,0,0,4.56-5.38c.41-.56-.83-1.11-1.25-.56a21.92,21.92,0,0,1-4.42,5.11c.42.14.83.41,1.25.55a46.09,46.09,0,0,1,1.1-6.07c.14-.69-1.1-1-1.38-.28a35,35,0,0,1-3,6.49,4,4,0,0,0,1.24.28c.14-5.66,1.94-10.91,4.15-16.15.28-.55-1-1-1.24-.42-3.18,4.56-4.15,10.63-6.08,15.88C311.83,401.12,313.07,401.39,313.35,400.84Z" style="fill: #1a2e44"/>
    </g>
  </g>
  <text style="fill: rgb(0, 128, 55); font-family: &quot;Finger Paint&quot;; font-size: 26px; font-weight: 700; white-space: pre;" x="298.538" y="309.346">N</text>
  <text style="fill: rgb(0, 128, 55); font-family: &quot;Finger Paint&quot;; font-size: 26px; font-weight: 700; white-space: pre;" x="319.502" y="310.185">V</text>
</svg>