<svg xmlns="http://www.w3.org/2000/svg" xmlns:xlink="http://www.w3.org/1999/xlink" width="298.631" height="266.628" viewBox="0 0 298.631 266.628">
  <defs>
    <clipPath id="clip-path">
      <path id="Path_152" data-name="Path 152" d="M0,0H289.6V206.2H0Z" transform="translate(0 54)" fill="#fff"/>
    </clipPath>
  </defs>
  <g id="forgot_password" transform="translate(0 -18.268)">
    <path id="Path_124" data-name="Path 124" d="M203.464,283.544C129.956,294.136,29.27,241.283,18.65,167.584S70.727,30.25,144.234,19.657,285.945,60.22,296.565,133.918,276.971,272.951,203.464,283.544Z" fill="#22d172"/>
    <g id="Group_228" data-name="Group 228" clip-path="url(#clip-path)">
      <path id="Path_125" data-name="Path 125" d="M12.2,81.3c29.2,2.1,58.4-.4,87.7.7,13,.5,26.1,2.4,39.1,1" fill="#fff"/>
      <path id="Path_126" data-name="Path 126" d="M12.1,82.6c20.9,1.4,41.8.6,62.8.4,10.9-.1,21.8-.1,32.7.6,10.6.7,21.1,1.6,31.7.6,2.3-.2,1.3-2.8-.7-2.6-10.9,1-21.8,0-32.7-.7-9.9-.6-19.8-.6-29.7-.5-21.3.2-42.6,1-63.8-.4-2.2-.2-2.5,2.4-.3,2.6Z" fill="#1a2e44"/>
      <path id="Path_127" data-name="Path 127" d="M140.7,81.4c-9.2,0-19.5-.4-25.9-7.1-4.1-4.3-5.6-10.4-9.3-15.1-1.5-1.9-3.6-3.7-6-4.1a9.761,9.761,0,0,0-6.6,1.6,17.8,17.8,0,0,0-7.4,8.4c-1.4,3.2-2.6,7.4-6.3,7.3a5.491,5.491,0,0,1-2.4-.7c-4.3-2.3-7-6.8-11.7-8.8a8.909,8.909,0,0,0-4.6-.6c-5.4,1-5.2,7.1-8.6,10-1.9,1.6-4.5,2-6.9,2.3Q23.7,77.15,2.4,78.5c-.9.1-1,1.4-.1,1.5A150.717,150.717,0,0,0,20,81.4" fill="#fff"/>
      <path id="Path_128" data-name="Path 128" d="M140.6,80.1c-7.3,0-15.7,0-21.9-4.5-5.7-4.1-7.3-11.1-11.3-16.5C99.7,48.8,87.9,56,83.5,65.5c-.5,1.1-.9,3.2-1.9,4-2.8,2.2-5.9,0-8-1.9-2-1.8-3.8-3.7-6.2-4.9-3.9-2.1-8.7-2.2-11.9,1.2-1.4,1.5-2,3.5-3.1,5.3-2.6,4.5-7.7,4.4-12.4,5-8.4.9-16.8,1.8-25.1,2.5C13.2,76.6-1.2,75.7.1,80c.6,2,4.3,1.8,5.8,2,4.7.5,9.5.8,14.2.9,2.2.1,2-2.6-.2-2.6-3.1-.1-6.3-.2-9.4-.5-1.8-.2-5.1-1.2-6.2,0,.7-.8,6.6-.5,7.8-.6,1.9-.2,3.9-.3,5.8-.5,9.5-.8,19.2-1.4,28.5-3,6.4-1.1,7.6-3.9,10.7-9,5.7-9.5,14.1,5.2,20.3,6.7,5.2,1.2,7.3-3.1,9.2-7.1,1.8-4,5.1-9,9.9-9.9,6.4-1.3,9.4,6.4,11.7,10.8,3,5.7,6.5,10.3,12.7,12.8s13.1,2.6,19.7,2.6c2.3.1,2.2-2.5,0-2.5Z" fill="#1a2e44"/>
      <path id="Path_129" data-name="Path 129" d="M117.4,118.8s-1.1-28.4,2-36.6c3.3-8.8,15.4-21,26.6-21.2s40.3.1,46.5,3.3,17.1,13.2,17.4,22.9,1.4,35.4,1.4,35.4l-12.4-3.1s.1-29.6-4.2-35.8c-4.3-6.1-15.3-9.7-29-9.7s-24.7.1-30.1,6.3c-6,6.9-6.1,39.1-6.1,39.1l-12.1-.6Z" fill="#fff"/>
      <path id="Path_130" data-name="Path 130" d="M244.7,247.8c2.4-5.1,4.7-10.3,6.7-15.6,2.2-5.7,4.3-11.2,8.5-15.7-.7-.4-1.5-.7-2.2-1.1-5.4,10.4-10.3,21.1-10.6,33,0,1.1,1.8,1.3,2.3.6a63.231,63.231,0,0,0,8-13.5l-2.4-.6a55.286,55.286,0,0,0-2.9,12c-.1,1.1,1.4,1.6,2.1,1a52.748,52.748,0,0,0,11.5-10.6c.8-1-1.5-2-2.2-1.1a49.516,49.516,0,0,1-11.2,10.2c.7.3,1.4.7,2.1,1a55.286,55.286,0,0,1,2.9-12c.4-1.2-1.9-1.7-2.4-.6a63.147,63.147,0,0,1-7.8,13c.8.2,1.6.4,2.3.6.2-11.5,5.1-22,10.3-32.1.7-1.3-1.5-1.9-2.2-1.1-7.8,8.3-10.5,21.2-15.3,31.3-.2,1.4,2,2.4,2.5,1.3Z" fill="#1a2e44"/>
      <path id="Path_131" data-name="Path 131" d="M143.6,77s-6.8,8.8-6.8,18.5v23.3H130s1.1-28.9,3.2-33.8,8.4-8.1,9.4-8.1l1,.1Z" fill="#1a2e44"/>
      <path id="Path_132" data-name="Path 132" d="M187.9,60.9c3.4.8,12.9,0,19.5,5.8,14.1,12.5,11.9,46.4,10.3,60.4a8.367,8.367,0,0,1-3.8,6,8.671,8.671,0,0,1-4.4,1.3,20,20,0,0,1-12.8-3.4,10.838,10.838,0,0,1-4.2-4.8c-.7-1.8,18.6-.7,18.8-2.6.9-9.9,1.7-20,.2-29.8-1.2-8.2-7.8-26.3-20.1-28.8" fill="#1a2e44"/>
      <path id="Path_133" data-name="Path 133" d="M120.5,151c-4.4-.2-4-2.6-3.9-6.1,0-3.5.1-7,.2-10.6.1-7.4.2-14.8.4-22.2.3-14.5-2-31.2,9.8-41.9,7.8-7.1,17.4-8.4,27.4-8.4,7.6,0,15.1-.1,22.7,0,11.8.1,21.7,6.2,27.8,16.2,7.3,12.1,5.1,26.4,5.1,39.9,0,5.7.1,11.5.1,17.2,0,2.1.1,4.3.1,6.4,0,3.5.9,7-3.7,8.1-2.7.7-6,.3-8.8.4l-12.8.3q-32.4.6-64.8.6c-1.3,0-2,2-.4,2,22.3-.1,44.6-.2,67-.7,4.7-.1,9.4-.2,14.1-.4,3-.1,7.3.3,9.8-1.8,2.9-2.6,2-7.7,1.9-11.1-.1-6-.2-12.1-.2-18.1-.1-14.7,2.7-30.8-5.3-44-6.2-10.2-16.5-16.9-28.6-17.1-8.2-.1-16.4,0-24.5,0-10.2,0-20,1.8-28,8.7C113,79.6,115,96.3,114.7,111.8c-.2,9.5-.4,18.9-.5,28.4-.1,5.8-2.1,12.3,5.3,12.6,1.2.3,2.5-1.7,1-1.8Z" fill="#1a2e44"/>
      <path id="Path_134" data-name="Path 134" d="M131.7,151.1c-5.4-.5-2.8-12.3-2.5-15.9.5-6.4,1.2-12.8,1.7-19.2.5-6.2,1-12.4,1.2-18.6.2-5.1.7-10.1,3.8-14.4,8.3-11.5,26.4-7.5,38.5-6.9,7.7.4,14.9,2.1,18.9,9.4a27.992,27.992,0,0,1,2.9,12.1c.2,6.7.1,13.5.3,20.2.3,9.5,1,19,1.2,28.4,0,2.7-.2,3.7-3,4.2a14.809,14.809,0,0,1-3,.1c-3.2.1-6.4.2-9.7.2-16.8.3-33.6.3-50.4.3-1.3,0-2,2-.4,2,17.8,0,35.7,0,53.5-.4,4-.1,14.1,1.5,15.3-3.9.8-3.5-.1-8.2-.3-11.8-.3-6.7-.6-13.4-.9-20C198.4,106,201,91.6,194,82c-4.7-6.4-11.8-7.6-19.2-7.9-13.1-.6-31.1-4.5-40.5,7.6-3.1,4.1-4.3,9-4.5,14-.4,8.7-.9,17.3-1.7,25.9-.7,7.7-1.5,15.4-1.8,23.1-.1,4.2-.5,7.9,4.5,8.4,1.2.1,2.5-1.8.9-2Z" fill="#1a2e44"/>
      <path id="Path_135" data-name="Path 135" d="M289.6,249.2c0,3.5-47.7,6.4-106.5,6.4-28.1,0-62,1.1-81,0-20.9-1.2-22.8-4.6-22.8-6.4,0-3.5,88.5-5.9,147.3-5.9S289.6,245.6,289.6,249.2Z" fill="#1a2e44"/>
      <path id="Path_136" data-name="Path 136" d="M201.7,121.8c20.2,0,34.9.6,39.5,19.2,7,28,4.7,91.4,3.2,98.3-1.8,8.1-8.9,11.3-30.6,14.2s-92.8-1.7-100.4,0-15.3-14.9-15.3-14.9,104.2-15.3,109.3-41.4-5.7-75.4-5.7-75.4Z" fill="#1a2e44"/>
      <path id="Path_137" data-name="Path 137" d="M112.1,249.6c-19.4,0-25.5-17.5-25.5-22,.1-26.4.8-26.5,1.4-61.7.4-25.8,3.3-45.9,29.1-45.8l77.2-.6c26,.1,34.4,21.4,34.3,47.4-.2,38.4,1.9,49,0,64.9-1.6,13.7-14.6,16.1-21,16.6-16.7,1.4-73.7,1.2-95.5,1.2Z" fill="#fff"/>
      <path id="Path_138" data-name="Path 138" d="M112.3,248.6a24.79,24.79,0,0,1-22.4-14.1c-3.1-6.5-2.1-13.7-1.9-20.8.3-18.3.7-36.6,1.5-54.8.4-8.9,1-18.8,5.4-26.8,4.7-8.4,13.1-10.9,22.2-11,9.2-.1,18.5-.1,27.7-.2l41.6-.3c12.8-.1,25.5.8,33.3,12.6,5.2,7.8,7,17.4,7.6,26.6.8,11.6.2,23.3.5,34.9.2,7.7.5,15.5.5,23.2,0,7.1.5,16.6-4.1,22.4-5.4,6.8-14.9,7.1-22.9,7.5-9.2.4-18.4.5-27.6.6-20.4.2-40.9.2-61.4.2-1.3,0-2,2-.4,2,19.8,0,39.6,0,59.5-.2,9.4-.1,18.8-.2,28.2-.6,6.6-.3,13.3-.4,19.4-3.3,14.4-6.9,11.8-26.3,11.4-39.6-.3-11.2-.6-22.5-.6-33.7,0-11.3,0-22.6-4-33.3-5.5-14.8-17.9-21.5-33.2-21.4l-40.1.3c-11.6.1-23.2.1-34.8.3-7.3.1-14.7,1.4-20.2,6.6-5.9,5.5-8.2,13.6-9.3,21.4-1.7,11.9-1.3,24.2-1.6,36.2-.2,8.4-.6,16.8-.8,25.2-.2,7.3-1.6,15.9.3,22.9a26.954,26.954,0,0,0,12.7,16.1,28.794,28.794,0,0,0,13.2,3.1c1.3.1,2-1.9.3-2Z" fill="#1a2e44"/>
      <path id="Path_139" data-name="Path 139" d="M154.2,203.1c-.4-.6-1.2-.8-1.2-1.7-.1-5.3-.2-14.8-.3-21.9-.1-5.2,2-9.3,4.5-9.2l1.1.1c2.6.1,4.8,4.5,4.9,9.8.2,7.8.4,17.9.5,21.2,0,1-.8,1.2-1.1,1.8-1.8,3.7-6.3,3.2-8.4-.1Z" fill="#1a2e44"/>
      <path id="Path_140" data-name="Path 140" d="M108.8,256.7c0,1.8-11.5,3.2-25.7,3.2-6.8,0-15.6.5-20.2,0-5-.6-5.5-2.3-5.5-3.2,0-1.8,22-2.9,36.2-2.9S108.8,255,108.8,256.7Z" fill="#1a2e44"/>
      <path id="Path_141" data-name="Path 141" d="M70.2,144.3s5.7-1.5,8,1.7c2.2,3,13,13.4,25.1,20.2,3.9,2.2,16.1,6.2,16.1,6.2s-1.4,26.9-7,42.3c-12.1,33.1-38.6,45.6-38.6,45.6l-4-3.2.4-112.8Z" fill="#1a2e44"/>
      <path id="Path_142" data-name="Path 142" d="M71.5,258.2c28.8-18.7,40.2-49.7,42.6-85l.3.2c-15.9-3.9-29.1-15.2-40.8-27.1L70.3,145C58,156.2,44.1,166.6,28,169.5l.3-.2C28.8,204.6,43.8,237.8,71.5,258.2Z" fill="#fff"/>
      <path id="Path_143" data-name="Path 143" d="M71.9,259.4c29.3-19.3,40.7-52.3,43.2-85.9-.4.3-.9.6-1.3.9.1.1.2.2.3.2.2-.8.3-1.6.5-2.4-10.5-2.8-19.8-8.4-28.1-15.4-5.3-4.5-9.6-10.5-16-13.1-.2-.1-.5.1-.7.2C57.7,154.8,44.3,165,28,168.2a20.482,20.482,0,0,1,.5,2.4c.1-.1.2-.1.3-.2-.4-.4-.9-.7-1.3-1.1.7,35,15.4,68.7,43.7,89.9,1.1.8,1.6-1.6.7-2.3C44.2,236.1,30,203.1,29.3,169c0-.5-.7-1.5-1.3-1.1-.1.1-.2.1-.3.2-.8.5-.7,2.7.5,2.4a68.818,68.818,0,0,0,24.2-10.1c3.6-2.3,7-4.9,10.3-7.5,1.7-1.4,3.4-2.8,5.1-4.3s2-2.6,4.1-1.9c3.2,1,6,5.2,8.4,7.4a109.1,109.1,0,0,0,9.8,8.2,69.73,69.73,0,0,0,24.2,12.1c1.3.3,1.1-1.8.5-2.4-.1-.1-.2-.2-.3-.2-.6-.5-1.2.4-1.3.9-2.4,32.9-13.5,65.2-42.1,84C70.1,257.7,70.8,260.1,71.9,259.4Z" fill="#1a2e44"/>
      <path id="Path_144" data-name="Path 144" d="M56.2,196.5c3.5,4.4,7,8.7,10.5,13.1a2.652,2.652,0,0,0,.6.5c.7.3,1.4-.5,1.8-1.3A183.741,183.741,0,0,1,86.3,183" fill="#fff"/>
      <path id="Path_145" data-name="Path 145" d="M54.8,198.4c3.3,4.1,6.4,8.4,9.9,12.4,1.8,2,3.4,2.4,5.3.2,3.2-3.8,5.3-9,8-13.1,3-4.5,6.2-9,9.5-13.2,1.6-2-.6-5.7-2.6-3.2A212.825,212.825,0,0,0,71,201.7a40.38,40.38,0,0,1-2.6,4.5l-.3,1.5c-.8-1-1.6-1.9-2.3-2.9-2.7-3.4-5.5-6.8-8.2-10.2-1.8-2.3-4.3,1.9-2.8,3.8Z" fill="#1a2e44"/>
    </g>
  </g>
</svg>
