<svg xmlns="http://www.w3.org/2000/svg" width="318.489" height="266.628" viewBox="0 0 318.489 266.628">
  <g id="login" transform="translate(-28.678 -18.268)">
    <path id="Path_153" data-name="Path 153" d="M214.671,283.544c-73.508,10.592-174.194-42.261-184.814-115.96S81.934,30.25,155.441,19.657,297.152,60.22,307.772,133.918,288.179,272.951,214.671,283.544Z" fill="#b4cdff"/>
    <path id="Path_154" data-name="Path 154" d="M187.156,73.727a10.419,10.419,0,0,0,3.409,9.614A13.21,13.21,0,0,0,199.224,86a12.118,12.118,0,0,0,5.318-1.023,8.441,8.441,0,0,0,4.091-4.431c1.295-3.341.272-7.16-1.432-9.955a17.262,17.262,0,0,0-3.614-4.3c-2.25-1.841-12.545-5.8-15.886,4.568" fill="#1a2e44"/>
    <path id="Path_155" data-name="Path 155" d="M194.19,78.073l-1.158.686a.181.181,0,0,0,0,.316l4.5,2.519a.88.88,0,0,0,.858,0l4.557-2.552a.169.169,0,0,0,0-.3l-1.224-.661a.49.49,0,0,0-.416.01l-2.917,1.633a.88.88,0,0,1-.858,0l-2.943-1.647a.426.426,0,0,0-.4,0Z" fill="#f8f8f8"/>
    <path id="Path_156" data-name="Path 156" d="M197.528,68.18a.883.883,0,0,1,.859,0l3.622,2.028a.2.2,0,0,1,0,.358,2.713,2.713,0,0,1-2.647,0l-.975-.546a.883.883,0,0,0-.859,0l-.949.532a2.772,2.772,0,0,1-2.7,0,.175.175,0,0,1,0-.326l3.652-2.045Z" fill="#f8f8f8"/>
    <path id="Path_157" data-name="Path 157" d="M203.626,71.232a.828.828,0,0,1,.429.721V77.82c0,.29-.182.344-.376.243l-1.341-.723V73.395l-3.951,2.213a.88.88,0,0,1-.858,0l-3.951-2.213v3.944l-1.219.723c-.145.092-.5.121-.5-.242V71.953a.826.826,0,0,1,.43-.72,1.022,1.022,0,0,1,.869,0l4.8,2.692,4.791-2.693a.916.916,0,0,1,.877,0Z" fill="#22d172"/>
    <g id="Group_231" data-name="Group 231">
      <path id="Path_158" data-name="Path 158" d="M274.7,258.4c0,3.9-34.5,7.1-77,7.1-20.3,0-44.8,1.2-58.6,0-15.1-1.3-16.5-5-16.5-7.1,0-3.9,64-6.5,106.5-6.5S274.7,254.5,274.7,258.4Z" fill="#1a2e44"/>
      <path id="Path_159" data-name="Path 159" d="M240.4,254.1c0,5.7-25,10.3-55.8,10.3s-55.8-4.6-55.8-10.3c0-1.1-1.3-7.6.2-8.6,7-4.2,30.4-1.8,55.5-1.8,25.3,0,48.5-2.3,55.4,2,1.6.9.5,7.3.5,8.4Z" fill="#fff"/>
      <path id="Path_160" data-name="Path 160" d="M239.2,254.2c-.4,4-11.7,5.6-14.5,6.1a189.325,189.325,0,0,1-25,2.8c-19.1,1-39.4.9-58.2-3.5-3.8-.9-10.2-1.9-11.5-6.1-.6-2-1.2-6.3.5-7.7,1.9-1.5,6.3-1.4,8.6-1.6,19.1-1.4,38.4.7,57.6.3,10-.2,20-.8,29.9-.4,3.2.1,7.1.1,10.1,1.3,4,1.7,2.7,5.3,2.5,8.8-.1,1.3,2.4.9,2.4-.3.1-2.3,1.2-6.2-.1-8.3-1.1-1.7-4.1-2.2-5.9-2.5-9-1.8-18.6-1-27.7-.7-13.9.4-27.8.5-41.7.1-9.9-.3-20-1.1-29.8.1-5.6.7-9.7,1.5-9.2,7.9.4,4.7,1.1,6.7,5.6,8.7,7.5,3.3,16.3,4.2,24.4,5a269.109,269.109,0,0,0,37,1.1c11.8-.4,24-1.2,35.5-4.1,3.5-.9,11.5-2.5,11.9-7.2.2-1.4-2.3-1-2.4.2Z" fill="#1a2e44"/>
      <path id="Path_161" data-name="Path 161" d="M184.6,256.2c30.817,0,55.8-4.612,55.8-10.3s-24.983-10.3-55.8-10.3-55.8,4.611-55.8,10.3S153.783,256.2,184.6,256.2Z" fill="#fff"/>
      <path id="Path_162" data-name="Path 162" d="M239.2,245.9c-.4,3.8-9.7,5.2-12.3,5.8a164.976,164.976,0,0,1-25.3,3.1c-18.7,1.1-38.2.9-56.7-2.6-3.4-.6-12.6-1.7-14.4-5.3-1.9-3.8,7.5-5.7,9.7-6.2,17.4-4.4,36.2-4.6,54.1-4a193.842,193.842,0,0,1,29.5,2.8c3,.6,15,2,15.4,6.4.1,1.2,2.6,1.3,2.5.1-.4-3.8-5.8-5.3-8.8-6.3-8.6-2.7-17.9-3.6-26.9-4.3-21.9-1.7-46-2-67.5,3.7-3,.8-9.8,2.2-10.7,6-.9,3.5,4.1,5.4,6.6,6.3,7.8,2.9,16.5,3.8,24.8,4.6a267.537,267.537,0,0,0,36.9.9c11.2-.4,22.7-1.2,33.7-4,3.4-.9,11.5-2.4,11.9-7C241.8,244.8,239.3,244.7,239.2,245.9Z" fill="#1a2e44"/>
      <path id="Path_163" data-name="Path 163" d="M299.9,66.2c2.6,9,8.1,107.2,2.3,124.5-4.8,14.5-154.7,12.5-210.5,11.3-10.5-.2-8.7-4.4-10-6.8-4.2-7.3,1.4-63.1,3.3-72.9,2.8-14.5,151-63.1,200.5-69.2C295.2,51.9,299.5,64.7,299.9,66.2Z" fill="#1a2e44"/>
      <path id="Path_164" data-name="Path 164" d="M276.2,50.2c11.3-.1,20,6.8,19.9,12.2-1.3,56.5,3.3,90.5,2.1,122.2-.2,6-8.8,11.2-19.9,12-34.8,2.5-143.8,3-181.4,4.8-16.7.8-29.2-6.3-29.7-15.4-2.7-54-2.6-85.6-2.7-118.5,0-5.8,8.2-13.5,18.9-14.3,27.9-1.8,156.6-2.7,192.8-3Z" fill="#fff"/>
      <path id="Path_165" data-name="Path 165" d="M276,51.5c6.5.1,17.6,2.7,19.1,10.5.8,4.1-.1,9.1-.1,13.2V88.8c.1,14.7.6,29.5,1.2,44.2.5,12,1.1,23.9,1.2,35.9.1,5.3,1.2,12.7-.7,17.6-2.7,7-13.3,8.6-19.8,9-44.7,3.2-89.8,2.5-134.6,3.4-10.1.2-20.2.4-30.3.7-11,.3-23,2.2-33.4-2.3a21.466,21.466,0,0,1-7.5-5c-2.9-3.1-3-6.4-3.2-10.4-.4-8.4-.8-16.9-1.1-25.3-.5-14.5-.9-28.9-1.1-43.4-.2-11.9-.2-23.8-.3-35.7,0-6.9-1-13.2,5-18.1,4.7-3.8,10.3-4.9,16.1-5.2,17.1-.9,34.2-1.1,51.4-1.4q64.2-1.05,128.5-1.4c3.2.1,6.4.1,9.6.1,1.3,0,1.6-2.5.4-2.5-44.3.4-88.6.7-132.9,1.4-18.6.3-37.3.5-56,1.4-9,.5-21.2,3.5-23.7,13.7-1.3,5.1-.3,11.4-.2,16.7,0,6.6.1,13.2.1,19.8.1,14.6.4,29.1.9,43.6.3,8.8.6,17.6,1,26.4.3,6.3-.9,14.6,2.6,20.2,6.3,10.2,21.1,10.8,31.7,10.4,10.1-.4,20.3-.7,30.4-.9,48.2-1.1,96.6-.6,144.7-3.5,9.9-.6,23.8-3.2,24.2-15.3.4-12.3-.1-24.6-.6-36.9-.6-15-1.3-30-1.6-44.9-.2-9.1-.2-18.2-.2-27.2.1-6,1.8-13-2.6-17.9-4.5-4.9-11.4-6.8-17.9-7-1.2,0-1.5,2.4-.3,2.5Z" fill="#1a2e44"/>
      <path id="Path_166" data-name="Path 166" d="M167.8,211.1c0-5.2.7-9.4,1.6-9.5,9.7-.7,27.1-1,32.5-1.2,1,0,1.9,3.9,2.1,9,.5,16.2.7,12.6,1.6,30.1.2,4.3-8.7,6.2-17.8,6.7-9.6.5-18.7-2.6-18.7-5.2-.4-13.1-1.2-13.1-1.3-29.9Z" fill="#fff"/>
      <path id="Path_167" data-name="Path 167" d="M169,211.1c.1-4.3-.8-8.6,4.3-8.9,3.1-.2,6.3-.3,9.5-.4,5.6-.2,11.5-.9,17-.5.9.1,1.4-.2,2,.3.9.8.9,4.6,1,5.7.2,3.2.2,6.4.4,9.6.2,3.8.4,7.5.7,11.3.2,3,.6,6.2.5,9.2-.2,4.5-3,5.6-7.2,6.5a56.377,56.377,0,0,1-12.9,1.2c-3.5-.1-9.2-.4-12.1-2.6-3.1-2.4-2.2-10.2-2.5-14.2-.5-5.7-.7-11.4-.7-17.2,0-1.2-2.5-1.5-2.5-.2,0,6,.2,12.1.7,18.1.2,2.2.3,4.4.4,6.6.1,2-.4,4.6.7,6.4,2.2,3.8,9.7,4.5,13.5,4.9,6.5.6,14.2.3,20.3-2.2,5.7-2.3,4.7-6.1,4.4-11.7-.2-4.4-.6-8.9-.8-13.3-.3-5.5,1-13.5-1.6-18.4-1.7-3.1-6-1.8-9-1.7-7.1.2-14.1.4-21.2.7-1.7.1-4.4-.3-5.8.9-1.9,1.7-1.4,7.7-1.4,9.8-.2,1.2,2.3,1.5,2.3.1Z" fill="#1a2e44"/>
      <path id="Path_168" data-name="Path 168" d="M166.4,202.8s37.8,11.9,37.8,11.1V199Z" fill="#1a2e44"/>
      <path id="Path_169" data-name="Path 169" d="M244,200.6c.2,11.6,3.1,24.1,13.8,30.2,6.3,3.5,13.6,5,20.6,6.3a87.62,87.62,0,0,1,8.9,1.8c2.5.8,4.9,2.4,1.2,3.7-2.3.8-23.4,0-20,5.6,1.7,2.8,7.2,3.3,10,3.6a136.421,136.421,0,0,0,19.2.7c8.7-.1,17.5-.4,26.2-.4,7.1,0,14.6-.2,21.6,1.4,1.3.3,2.5-1.5.9-1.8-12.1-2.8-25.4-1.5-37.7-1.3-7.1.1-14.1.3-21.2,0-4.7-.2-11.3.2-15.5-2.4-2.4-1.5-.9-1.9,1.2-2.2,2.9-.4,6-.4,8.9-.6s8.3-.1,10.3-2.9c4.4-6.2-18.4-8.2-20.9-8.8-8.4-2.1-17.2-5.5-21.1-13.8-2.8-5.8-3.9-12.9-4-19.3C246.4,199.2,244,199.4,244,200.6Z" fill="#1a2e44"/>
      <path id="Path_192" data-name="Path 192" d="M146.2,195.8c-.5-32.3-1.1-64.6-1.6-96.9,0-1.7,0-3.6,1.1-4.9,1.3-1.5,3.5-1.7,5.4-1.7,25.2-.8,50.3-1.6,75.5-2.5a1.538,1.538,0,0,1,1.5,1.5c-1.3,32.2,2,74.4,2,106.1" fill="#fff"/>
      <path id="Path_193" data-name="Path 193" d="M147.4,195.7q-.45-29.7-1-59.3c-.2-9.9-.3-19.8-.5-29.7-.1-5.4-1.5-11.9,5.3-13.5,4.5-1.1,10.3-.3,14.9-.5,9.9-.3,19.9-.6,29.8-1,4.6-.2,9.3-.3,13.9-.5,3.7-.1,13.4-2,15.9.6,2.1,2.2.9,8.2.8,11.2v12.3c.1,8.6.3,17.2.6,25.7.6,18.8,1.6,37.5,1.6,56.3,0,1.2,2.5,1.1,2.5-.2,0-18.8-1-37.5-1.6-56.3-.3-9.4-.6-18.8-.7-28.2,0-4.6,0-9.2.1-13.8,0-2.3,1.3-7.6-.5-9.4-1.9-1.8-6.9-.6-9-.5-5.6.2-11.3.4-16.9.6-11.3.4-22.5.7-33.8,1.1-5.3.2-10.6.3-15.9.5-2.8.1-6.5-.1-8.5,2.3s-1.2,6.5-1.2,9.4l.3,17.8,1.2,75.2c.2,1.3,2.7,1.1,2.7-.1Z" fill="#1a2e44"/>
      <path id="Path_194" data-name="Path 194" d="M160.2,140.6c10.1.3,20.1.2,30.2-.5,1.2-.1,1.8-2.5.4-2.4a276.7,276.7,0,0,1-30.2.5C159.5,138.2,158.9,140.6,160.2,140.6Z" fill="#1a2e44"/>
      <path id="Path_195" data-name="Path 195" d="M160.9,148.2c6.8.1,13.7.1,20.5.2,1.2,0,2.3-2.1.7-2.1-6.8-.1-13.7-.1-20.5-.2C160.4,146.1,159.4,148.2,160.9,148.2Z" fill="#1a2e44"/>
      <path id="Path_196" data-name="Path 196" d="M162.3,157.9c10.2.3,20.3.2,30.5-.5,1.2-.1.8-2.5-.4-2.5a271.644,271.644,0,0,1-29.9.5c-1.5,0-1.4,2.4-.2,2.5Z" fill="#1a2e44"/>
      <path id="Path_197" data-name="Path 197" d="M163.4,165.4c6.8.1,13.7.1,20.5.2,1.6,0,.6-1.9-.6-1.9-6.8-.1-13.7-.1-20.5-.2C161.2,163.4,162.2,165.4,163.4,165.4Z" fill="#1a2e44"/>
      <path id="Path_198" data-name="Path 198" d="M160.2,177.2c10.1.3,20.1.2,30.2-.5,1.2-.1,1.8-2.5.4-2.4a276.7,276.7,0,0,1-30.2.5C159.5,174.8,158.9,177.2,160.2,177.2Z" fill="#1a2e44"/>
      <path id="Path_199" data-name="Path 199" d="M160.9,184.8c6.8.1,13.7.1,20.5.2,1.2,0,2.3-2.1.7-2.1-6.8-.1-13.7-.1-20.5-.2C160.4,182.7,159.4,184.8,160.9,184.8Z" fill="#1a2e44"/>
      <path id="Path_200" data-name="Path 200" d="M159.5,106c.1-1.7,1.2-3.1,2.6-3.1,14.6-.5,40.7-1,48.9-1.2a3.053,3.053,0,0,1,3,2.9c.4,5.2.2,13.1.4,18.8a4.412,4.412,0,0,1-4.2,4.7c-13.7,0-39.5,1.2-48,1.6a2.792,2.792,0,0,1-2.9-2.7c-.2-4.3,0-15.6.2-21Z" fill="#22d172"/>
      <path id="Path_201" data-name="Path 201" d="M160.5,106c.7-3.7,16.8-2.4,19.7-2.5,6-.1,12-.3,18-.4,2.6-.1,5.2-.1,7.9-.2,2.6-.1,4.4-.7,6,1.5,2.1,3,1.3,7.6,1.4,11.2,0,4.7,1.5,10.2-5,11.1-5.6.7-11.7.2-17.3.4-6.3.2-12.7.5-19,.8l-6.3.3c-.8,0-2.4.4-3.1.1-2.4-.8-2.2-2.8-2.2-4.6-.1-6,.1-12.1.2-18.1,0-1.6-1.9-.8-2,.5-.2,6.2-.4,12.5-.2,18.7.1,4.5,1.4,6.1,6,5.8,12.4-.6,24.9-1.1,37.3-1.4,3.9-.1,10,1.2,12.7-2.5,1.3-1.8,1.1-3.8,1.1-6-.1-4.1,0-8.2-.1-12.2-.1-4.8-.2-8.1-5.7-8.1-5.4,0-10.8.2-16.2.4-7.5.2-15,.3-22.4.5-4.7.1-11.2-1.4-12.4,4.5-.7,1.7,1.3,1.6,1.6.2Z" fill="#1a2e44"/>
      <path id="Path_202" data-name="Path 202" d="M165.3,126.7c3.2-2.7,9.5-9.5,13.8-7.9,2.9,1.1,5.7,4.4,8.9,3.7,3.5-.8,7.4-4.5,10.4-6.3,1.8-1.1,3.8-2.6,5.8-3.2,3.7-1.2,5.5,1.9,7.9,4.2.9.9,2.8-.8,1.9-1.7l-6-5.7a1.232,1.232,0,0,0-1-.2,93.062,93.062,0,0,0-12.8,6.9c-2.6,1.6-5.3,4-8.6,3.1-2.5-.7-5-2.8-7.1-4.2a1.1,1.1,0,0,0-1.1.1,116.423,116.423,0,0,0-13.4,9.6c-1.2,1.2.1,2.6,1.3,1.6Z" fill="#1a2e44"/>
      <path id="Path_203" data-name="Path 203" d="M172.8,106.5a1.1,1.1,0,0,0-.9.4c-.2.2-.2.5-.3.7-.1.5-.2,1.1.4,1.5a3.582,3.582,0,0,0,1.1.4,13.2,13.2,0,0,0,2.8.2,2.769,2.769,0,0,0,.9-.1,1.542,1.542,0,0,0,.7-.7,2.439,2.439,0,0,0-1.1-2,3.365,3.365,0,0,0-1.7-.8,3.713,3.713,0,0,0-2.1.2" fill="#fff"/>
      <path id="Path_204" data-name="Path 204" d="M172.7,105.3c-1.9.3-2.6,2.6-1.8,4.2.9,1.7,4.2,1.8,5.9,1.5,2-.4,2.1-2.7,1.1-4.1a4.707,4.707,0,0,0-5.6-1.7c-1.1.5-.4,2.9.8,2.3a2.809,2.809,0,0,1,2.2.1,1.8,1.8,0,0,1,.9.6c.3.5.4.2,0,.4a7.388,7.388,0,0,1-2.1,0,5.019,5.019,0,0,1-1.2-.2c-.3-.1-.7-.4.1-.5,1.2-.3.9-2.8-.3-2.6Z" fill="#1a2e44"/>
    </g>
  </g>
</svg>
