<svg xmlns="http://www.w3.org/2000/svg" xmlns:xlink="http://www.w3.org/1999/xlink" width="300.1" height="266.628" viewBox="0 0 300.1 266.628">
  <defs>
    <clipPath id="clip-path">
      <path id="Path_247" data-name="Path 247" d="M0,0H300.1V236.9H0Z" transform="translate(23 32)" fill="#fff"/>
    </clipPath>
  </defs>
  <g id="signup" transform="translate(-23 -18.268)">
    <path id="Path_206" data-name="Path 206" d="M210.464,283.544C136.956,294.136,36.27,241.283,25.65,167.584S77.727,30.25,151.234,19.657,292.945,60.22,303.565,133.918,283.971,272.951,210.464,283.544Z" fill="#f9c273"/>
    <g id="Group_230" data-name="Group 230" clip-path="url(#clip-path)">
      <path id="Path_208" data-name="Path 208" d="M228.4,262.8c0,3.1-22.5,5.7-50.2,5.7-13.2,0-29.2.9-38.2,0-9.8-1-10.7-4-10.7-5.7,0-3.1,41.7-5.2,69.4-5.2s29.7,2,29.7,5.2Z" fill="#1a2e44"/>
      <path id="Path_214" data-name="Path 214" d="M262.5,120.7s3.9-2.1,5.2.4c1.2,2.5-15.2,95.4-16.1,98.1s-7.3,2.4-8.1,1.5,18.9-99.6,18.9-99.6" fill="#1a2e44"/>
      <path id="Path_215" data-name="Path 215" d="M189.2,121.6a90.966,90.966,0,0,1,10.5-10.1c.7-.5,1.4-1.2,2.1-1.8,1-.9,6.5-3.6,7.9-3.2,22.1,5.7,41.6,7.2,52.2,9,2.3.4,3.9,2.1,3.7,4-.4,5.9-16.1,89.7-16.9,96-.4,2.8-3.6,4.6-7,4-19.8-3.8-52-5.4-64.3-10.6-2-.9-3.2-6.5-3-8.3.3-3.9,10-54.4,14.6-78.4.9-4.9,13.3-1.4,14.2-.9,2.2,1.2,3.4-3.3,3.4-6.4,0-1.8.4-6.2,1.7-7.8" fill="#fff"/>
      <path id="Path_216" data-name="Path 216" d="M190.1,122.1c3.8-4.5,8.7-9.7,13.9-12.7,4.7-2.7,8.6-.9,13.5.2s9.9,2,14.8,2.8c8.1,1.3,16.3,2.3,24.5,3.5,3.1.4,7.2.4,7.5,4.5a11.85,11.85,0,0,1-.5,3.2c-3.2,20.4-7.2,40.7-10.8,61.1-1.6,9-3.3,17.9-4.8,26.9a28.677,28.677,0,0,1-.5,3.1c-1.4,3.7-5.8,3.9-9.2,3.3-8.1-1.4-16.3-2.3-24.5-3.3-8-1-16-1.9-23.9-3.4a51.578,51.578,0,0,1-9.4-2.3c-3.8-1.4-5.2-4.5-5-8.6.1-3,1-6.1,1.5-9.1,1-5.9,2.1-11.7,3.2-17.5,2.9-15.6,5.9-31.1,8.9-46.7.4-1.9.5-5.1,2.4-6.2,1.5-.8,4.4-.2,6,.1,1.8.3,4.2,1.6,6,1.5,5.7-.4,3.7-11.8,5.8-15.2.8-1.3-1.6-1.4-2.2-.3-1.8,3.1-1.4,6.6-1.9,9.9-.8,4.9-3.2,2.7-6.7,2.1-3.8-.6-9.2-1.1-10.7,3.3-2.4,6.7-2.8,14.8-4.2,21.8-1.6,8.3-3.2,16.6-4.7,24.9-1.3,6.9-2.6,13.8-3.8,20.7-.6,3.6-1.7,7.3-1.8,11-.1,2.4.4,5.6,1.9,7.6,1.4,2,4,2.5,6.2,3.1,8.1,2.3,16.6,3.3,25,4.3,9.5,1.2,19.1,2.2,28.5,3.7,5.4.8,13.1,3.1,15-4,2-7.4,2.7-15.4,4-23,4.2-23.2,8.8-46.4,12.4-69.7.6-3.9.7-6.9-4-8.3-3.9-1.1-8.5-1.2-12.5-1.8-5.5-.7-11.1-1.5-16.6-2.4-6.5-1.1-13-2.3-19.5-3.9-4-1-6-1.1-9.8.8-6,2.9-11.5,8.9-15.8,14-1.1,1.4,1,1.9,1.8,1Z" fill="#1a2e44"/>
      <path id="Path_217" data-name="Path 217" d="M206.3,145c10.6,2,21.2,4.3,31.6,6.9,1.2.3,2-2.1.8-2.4-10.5-2.6-21-4.9-31.6-6.9C205.9,142.4,205.1,144.8,206.3,145Z" fill="#1a2e44"/>
      <path id="Path_218" data-name="Path 218" d="M205.6,154.5a119.266,119.266,0,0,0,15.8,3.1c1.4.2,2.3-1.6.7-1.8a122.506,122.506,0,0,1-15.8-3.1C204.9,152.3,204,154.1,205.6,154.5Z" fill="#1a2e44"/>
      <path id="Path_219" data-name="Path 219" d="M203.8,163.6c11.8,2,23.5,4.2,35.1,6.9,1.2.3,2.3-1.9,1.1-2.2q-17.4-3.9-35.1-6.9c-1.2-.2-2.4,2-1.1,2.2Z" fill="#1a2e44"/>
      <path id="Path_220" data-name="Path 220" d="M203.5,174.5c4.5.7,9.1,1.4,13.6,2.1,1.3.2,2.4-1.7.8-1.9-4.5-.7-9.1-1.4-13.6-2.1C202.9,172.4,201.9,174.2,203.5,174.5Z" fill="#1a2e44"/>
      <path id="Path_221" data-name="Path 221" d="M201.4,184.7a227.081,227.081,0,0,0,31.6,5.5c1.2.1,1.3-2.4.1-2.5a232.412,232.412,0,0,1-31.1-5.4C200.6,181.9,200.2,184.4,201.4,184.7Z" fill="#1a2e44"/>
      <path id="Path_222" data-name="Path 222" d="M101.1,159.5s-1.2-4.3,1.5-5c2.7-.6,89.8,35.6,92.2,37.1,2.5,1.4.7,7.7-.3,8.2-1,.6-93.1-40.2-93.1-40.2" fill="#1a2e44"/>
      <path id="Path_223" data-name="Path 223" d="M86,231.3a93.7,93.7,0,0,1-7.6-12.4,14.144,14.144,0,0,0-1.3-2.4c-.7-1.1-2.1-7.1-1.4-8.4,10.4-20.3,16.1-39,20.2-49,.9-2.1,2.9-3.3,4.7-2.8,5.7,1.7,84,35.2,90,37.4,2.7,1,3.8,4.5,2.4,7.7-8,18.5-16.7,49.6-24.4,60.5-1.3,1.8-7,1.7-8.8,1.1-3.8-1.2-50.9-21.6-73.3-31.3-4.6-2,1.5-13.3,2.2-14.1,1.6-1.9-2.5-4-5.5-4.7-1.7-.4-6-1.7-7.3-3.4" fill="#fff"/>
      <path id="Path_224" data-name="Path 224" d="M87.1,230.7A67.958,67.958,0,0,1,78,215.4a14.5,14.5,0,0,1-1.1-5c-.1-2.5,1-4.2,2.1-6.5,2.4-4.9,4.6-9.9,6.7-14.9,3.2-7.7,6-15.5,8.9-23.3.9-2.6,2.2-8.4,5.7-8.3a12.537,12.537,0,0,1,2.5.9c19.1,7.4,37.8,15.7,56.7,23.6,8.6,3.6,17.1,7.2,25.7,10.8,4.3,1.8,8.7,2.7,6.6,9.1-2.4,7.6-5.8,15-8.5,22.6-2.8,7.8-5.4,15.6-8.6,23.2-1.3,3.1-2.6,6.3-4.2,9.3-2.1,4.1-4.5,6.4-9.4,5.3-2.8-.6-5.6-2.2-8.3-3.3-5.4-2.2-10.7-4.5-16.1-6.8-14.6-6.2-29.2-12.6-43.7-18.9-3.7-1.6-7.5-2.4-6.5-7.2.6-2.9,2.2-5.2,3.3-7.9,2.5-6.2-9.4-6.3-12.7-9.4-.9-.8-2.9.6-1.9,1.6,2.7,2.5,6.3,2.8,9.5,4.2,4.9,2.1,2.1,4.2.7,7.7-1.9,4.7-2.8,8.9,2.3,11.2,14.6,6.6,29.4,12.8,44.2,19.1,6.2,2.7,12.4,5.3,18.7,7.9,2.9,1.2,5.9,2.8,9,3.6,5.6,1.4,9.5-.2,12.2-5,4-7,6.7-14.7,9.4-22.2,3.3-9.1,6.4-18.2,9.8-27.2,2-5.1,7.2-13.2.3-16.8s-14.6-6-21.8-9.1c-21.6-9.1-43.2-18.7-65.1-27.2-3.2-1.2-6.3-2.2-8.8,1.1-2.1,2.9-3.1,7.3-4.3,10.6-1.8,5-3.7,10-5.6,15-2.4,6-4.9,11.9-7.6,17.8-2,4.2-4.2,7-3.3,11.7,1.3,6.8,6.1,13.8,10.2,19.2.7.9,2.9-.3,2.1-1.2Z" fill="#1a2e44"/>
      <path id="Path_225" data-name="Path 225" d="M112.6,219.2c4.3-9.9,8.8-19.7,13.6-29.4.7-1.4-1.6-1.5-2.2-.4-4.8,9.7-9.4,19.4-13.6,29.4C109.8,220.2,112.1,220.3,112.6,219.2Z" fill="#1a2e44"/>
      <path id="Path_226" data-name="Path 226" d="M121.8,222.1a118.933,118.933,0,0,0,6.4-14.7c.6-1.5-1.4-1.9-1.9-.5a136.219,136.219,0,0,1-6.4,14.7C119.2,223.1,121.2,223.4,121.8,222.1Z" fill="#1a2e44"/>
      <path id="Path_227" data-name="Path 227" d="M130.4,225.6c4.5-11.1,9.3-22,14.4-32.8.6-1.2-1.9-1.5-2.4-.4-5.1,10.8-9.9,21.7-14.4,32.8C127.5,226.4,130,226.7,130.4,225.6Z" fill="#1a2e44"/>
      <path id="Path_228" data-name="Path 228" d="M140.6,228.9c1.7-4.3,3.3-8.5,5-12.8.5-1.2-1-2.8-1.6-1.3-1.7,4.3-3.3,8.5-5,12.8C138.6,228.8,140,230.4,140.6,228.9Z" fill="#1a2e44"/>
      <path id="Path_229" data-name="Path 229" d="M149.9,233.2a236.331,236.331,0,0,0,12.2-29.4c.4-1.2-1.1-2.8-1.6-1.3a236.33,236.33,0,0,1-12.2,29.4C147.7,233.1,149.2,234.7,149.9,233.2Z" fill="#1a2e44"/>
      <path id="Path_235" data-name="Path 235" d="M302.6,169a28.135,28.135,0,0,1,7.4,6c2.3,2.8,9.8,30.6,12.8,41.4.7,2.5-.2,6.7-2.5,7.5-14.9,5.2-66.8,21.1-67.9,20.2-1.3-1,52.9-65.9,52.9-65.9" fill="#1a2e44"/>
      <path id="Path_236" data-name="Path 236" d="M226.1,198.9c-1-3.5-.1-6.7,1.9-7.4,21.3-7.1,59.6-19.1,71.7-23,2.3-.7,5,1.2,6.2,4.6,3.9,10.4,8.4,26.6,12.3,38,1.7,5.1.2,10.2-3.3,11.2-20.3,5.8-57.7,19.1-70,23.5-2.2.8-4.8-1.1-5.9-4.3-3.2-8.4-9.8-31.4-12.9-42.6Z" fill="#fff"/>
      <path id="Path_237" data-name="Path 237" d="M227.3,198.6c-1.4-6.4,4-7.2,8.8-8.7l12.9-4.2c8.4-2.7,16.7-5.4,25.1-8,6.9-2.2,13.7-4.4,20.6-6.5,4.2-1.3,7.8-2.3,10.1,2.6,2.1,4.5,3.4,9.8,4.9,14.5,1.5,4.6,2.9,9.3,4.3,13.9,1.4,4.5,4.3,10.2,3.6,14.9-.8,5-7.7,5.7-11.7,7-4.3,1.3-8.5,2.7-12.8,4.1-15,4.9-29.8,10.1-44.7,15.4-2,.7-4.2,1.9-6.3.4-1.6-1.2-2.2-3.7-2.8-5.5-1.5-4.5-2.9-9-4.2-13.6-2.8-8.7-5.4-17.5-7.8-26.3-.4-1.3-2.7-.4-2.4.7,2.9,10.1,5.7,20.2,8.8,30.3,1.5,4.8,3.2,17.5,10,17.4,2.7,0,5.9-1.9,8.4-2.8,4.4-1.6,8.8-3.1,13.3-4.7,10.2-3.5,20.3-7,30.6-10.4,4.5-1.5,9.1-2.9,13.7-4.3,3.2-1,6.9-1.4,8.9-4.3,2.4-3.5,1.5-7.7.3-11.4-2-6.4-4.1-12.9-6.1-19.3-1.5-5-3.1-9.9-4.8-14.8-1.2-3.5-3.1-7.9-7.5-7.6-2.9.2-5.9,1.8-8.7,2.6-4.5,1.4-8.9,2.8-13.4,4.2-11.6,3.7-23.3,7.4-34.9,11.2-5,1.6-10.2,2.9-15,4.9-3.8,1.6-4.3,5-3.5,8.9.2,1.4,2.5.6,2.3-.6Z" fill="#1a2e44"/>
      <path id="Path_238" data-name="Path 238" d="M311.076,176.623l-84.2,25.572,4.04,13.3,84.2-25.573-4.039-13.3Z" fill="#1a2e44"/>
      <path id="Path_239" data-name="Path 239" d="M245.8,224.9c9.6-3,19.3-5.7,29-8.3,1.3-.4,1.6-2.3,0-1.9-9.9,2.6-19.8,5.4-29.6,8.5-1.6.4-.9,2.2.6,1.7Z" fill="#1a2e44"/>
      <path id="Path_240" data-name="Path 240" d="M248.7,231a150.91,150.91,0,0,0,14.5-4.4c1.5-.5.2-2.2-1-1.8a150.907,150.907,0,0,1-14.5,4.4c-1.6.4-.3,2.2,1,1.8Z" fill="#1a2e44"/>
      <path id="Path_241" data-name="Path 241" d="M164.3,119.4a27.78,27.78,0,0,1-3.5,8.8c-2,3-26.4,18.3-35.9,24.3-2.2,1.4-6.4,1.7-7.9-.2-9.4-12.8-39.6-57.8-39.1-59.1.6-1.6,78.5,31.5,78.5,31.5" fill="#1a2e44"/>
      <path id="Path_242" data-name="Path 242" d="M113.3,54.9c3-1.9,6.4-2.1,7.7-.3,13,18.3,35.6,51.5,42.8,61.9,1.4,2,.3,5.1-2.6,7.2-8.9,6.7-23,15.8-32.8,22.8-4.4,3.1-9.7,3.2-11.7.1C105.3,128.9,81.8,97,74,86.5c-1.4-1.9-.3-4.9,2.4-6.9,7.1-5.4,27.2-18.4,36.9-24.7Z" fill="#fff"/>
      <path id="Path_243" data-name="Path 243" d="M113.8,55.7c6.3-3.4,9.7,4.5,12.4,8.4l7.5,10.8c5,7.2,10,14.4,14.9,21.6,3.9,5.7,7.9,11.5,11.8,17.2,2.7,3.9,3.6,6.4-.9,10.1-3.8,3.2-8.2,5.9-12.3,8.7-3.8,2.6-7.6,5.2-11.4,7.7-4.3,2.9-12.1,10.6-17.4,6.3-2.6-2.1-4.5-6.7-6.4-9.4-2.4-3.5-4.9-7.1-7.4-10.6-8.9-12.7-18.1-25.2-27.3-37.7-1.2-1.6-2.2-2.6-2.3-4.6-.1-2.9,2.4-4.4,4.5-5.9,3.7-2.6,7.5-5.2,11.3-7.7,7.6-5,15.3-9.9,23-14.9,1.3-.8.4-2.5-.9-1.7-8.5,5.5-17,11-25.4,16.6C83.4,73.3,71.2,79,72.3,85.4c.5,2.7,3.5,5.5,5.1,7.6,2.8,3.8,5.5,7.5,8.3,11.3,6.3,8.7,12.6,17.4,18.8,26.2,2.7,3.9,5.5,7.8,8.1,11.8,2,3,3.5,6.7,7.4,7.3s7.3-1.4,10.3-3.5c5.2-3.6,10.4-7.1,15.6-10.7,4.7-3.2,9.3-6.3,13.9-9.7,2.7-2,6.6-4.9,5.6-8.9-.7-2.5-3.2-5.1-4.6-7.1-2.6-3.8-5.2-7.6-7.8-11.3-6.9-10-13.8-20.1-20.8-30.1-3.1-4.5-6.1-9.3-9.5-13.6-2.7-3.5-6.2-2.8-9.8-.8-1.4.9-.5,2.6.9,1.8Z" fill="#1a2e44"/>
      <path id="Path_244" data-name="Path 244" d="M159.465,129.768,110.519,56.631,98.967,64.362,147.912,137.5l11.553-7.731Z" fill="#1a2e44"/>
      <path id="Path_245" data-name="Path 245" d="M93.9,81.4c5.7,8.4,11.2,16.9,16.5,25.6.6,1,2.8-.2,2.1-1.3C107.2,97,101.7,88.5,96,80.1,95.3,79.1,93.1,80.3,93.9,81.4Z" fill="#1a2e44"/>
      <path id="Path_246" data-name="Path 246" d="M88.8,85.4q3.9,6.45,8.4,12.6c.7.9,3.1.5,2.3-.6-3-4.1-5.8-8.2-8.4-12.6C90.4,83.8,88,84.2,88.8,85.4Z" fill="#1a2e44"/>
    </g>
  </g>
</svg>
