<svg xmlns="http://www.w3.org/2000/svg" width="118.266" height="100" viewBox="0 0 118.266 100">
  <path id="honesty_2" d="M96.222,183.423h7.861a5.294,5.294,0,0,0,5.285-5.152c0-.05.015-.1.015-.147,0-.028-.009-.053-.009-.08h-.028a1.039,1.039,0,0,0-.022-.255l-7.8-22.765h14.958v39.448h-6.77a5.3,5.3,0,0,0-5.3,5.3c0,.05.013.1.016.147h29.408c0-.051.015-.1.015-.147a5.3,5.3,0,0,0-5.3-5.3h-6.771V155.024H136.6l-7.664,22.769a.986.986,0,0,0-.022.251h-.03c0,.028-.008.053-.008.08a5.3,5.3,0,0,0,5.3,5.3h7.862a5.292,5.292,0,0,0,5.284-5.152c0-.05.016-.1.016-.147a.713.713,0,0,0-.009-.08h-.025a1.039,1.039,0,0,0-.024-.255l-7.8-22.765h1.434a1.766,1.766,0,1,0,0-3.532H121.782v-5.448a2.649,2.649,0,1,0-5.3,0v5.448H97.348a1.766,1.766,0,1,0,0,3.532h1.3l-7.663,22.768a.986.986,0,0,0-.022.251h-.03c0,.028-.009.053-.009.08a5.3,5.3,0,0,0,5.3,5.3Zm48.642-6.332H131.353l6.7-19.895ZM100.092,157.2l6.816,19.895H93.4Zm77.582,18.673a5.435,5.435,0,0,0-4.733-1.462,3.661,3.661,0,0,0-1.338.694l-.039.033a16.988,16.988,0,0,0-1.426,1.335,4.429,4.429,0,0,0-4.488.787c-2.531,2.23-5.833,8.678-7.226,11.777-.349.774-.793,1.667-1.284,2.59-.424.8-.884,1.617-1.347,2.4a6.387,6.387,0,0,0-1.188.821c-1.617,1.426-3.383,4.28-4.949,6.8l-.384.614a14.939,14.939,0,0,1-8.475,4.615,31.951,31.951,0,0,0-11.276,5.589c-2.423,2.138-7.759,8.248-8.407,10.677-.12.445-.278.938-.464,1.511-.252.787-.564,1.752-.9,3-.2.754-.409,1.611-.622,2.594-.212-.984-.422-1.84-.625-2.593-.331-1.244-.642-2.209-.9-3-.184-.573-.343-1.066-.462-1.511-.651-2.428-5.988-8.539-8.41-10.677a31.933,31.933,0,0,0-11.274-5.589,14.945,14.945,0,0,1-8.479-4.615l-.381-.614c-1.563-2.518-3.334-5.37-4.95-6.8a6.35,6.35,0,0,0-1.185-.821c-.467-.788-.927-1.607-1.348-2.4-.493-.924-.938-1.816-1.286-2.59-1.39-3.1-4.691-9.548-7.224-11.777a4.427,4.427,0,0,0-4.488-.787,16.582,16.582,0,0,0-1.426-1.335c-.011-.012-.028-.024-.037-.033a3.654,3.654,0,0,0-1.338-.694,5.428,5.428,0,0,0-4.732,1.462l-.593.544.319.738c.095.216.871,2,1.9,4.36,2.172,4.988,5.477,12.561,5.891,13.4.226.46.423.968.613,1.46a9.718,9.718,0,0,0,1.026,2.151c.549.758,5.687,8.827,6.244,9.748a10.4,10.4,0,0,1,.489,1.227c.563,1.572,1.265,3.531,2.61,4.364a38.486,38.486,0,0,1,4.271,4.018c1.306,1.329,2.791,2.829,4.512,4.493a54.407,54.407,0,0,0,5.5,4.535c2.231,1.662,3.992,2.979,5.163,4.8.6.941.8,3.517.749,6.7-.021,1.544-.1,3.271-.216,4.985.769-.055,39.344-.055,40.116,0-.118-1.715-.2-3.442-.219-4.985-.044-3.179.147-5.754.752-6.7,1.171-1.824,2.933-3.141,5.164-4.8a54.7,54.7,0,0,0,5.5-4.535c1.724-1.663,3.209-3.164,4.514-4.493a38.13,38.13,0,0,1,4.271-4.018c1.343-.835,2.046-2.792,2.608-4.364a9.8,9.8,0,0,1,.49-1.227c.554-.921,5.7-8.99,6.242-9.748a9.685,9.685,0,0,0,1.026-2.151c.192-.493.388-1,.616-1.46.41-.84,3.719-8.411,5.89-13.4,1.024-2.361,1.8-4.146,1.895-4.36l.324-.738ZM71.114,178.954c1.794,1.582,4.385,6.251,6,9.606.243.5.462.975.654,1.4.41.916.987,2.059,1.637,3.255l-3.787-4.267c-.146-.214-.294-.434-.451-.661-.243-.748-.522-1.472-.819-2.182a33.221,33.221,0,0,0-4.514-7.656,1.985,1.985,0,0,1,1.279.5Zm46.677,61.983H101.5c.043-1.128.068-2.258.065-3.256-.012-3.167-.3-5.918-1.114-7.188-1.393-2.173-3.4-3.668-5.717-5.4a52.353,52.353,0,0,1-5.284-4.349c-1.7-1.643-3.176-3.135-4.476-4.451a35.4,35.4,0,0,0-4.684-4.351c-.673-.42-1.3-2.166-1.677-3.21a9.966,9.966,0,0,0-.679-1.631c-.589-.972-5.757-9.086-6.345-9.9a8.424,8.424,0,0,1-.754-1.644c-.207-.536-.424-1.093-.691-1.64-.4-.807-3.891-8.812-6.456-14.707-.327-.753-.639-1.472-.93-2.138a2.155,2.155,0,0,1,2.481-.207c.025.018.053.043.076.065.218.181.455.391.71.639s.521.521.8.825c.243.263.491.551.748.856a31.375,31.375,0,0,1,2.418,3.35,28.991,28.991,0,0,1,3.079,6.537l.049.157.093.134c1.615,2.392,2.748,3.952,3.523,4.962a5.067,5.067,0,0,0-.41.364c-1.905,1.913-1.338,3.317,1.937,8.458A24.768,24.768,0,0,1,79.4,205.7c.18.439.336.82.507,1.159a8.845,8.845,0,0,1,.382,1,4.8,4.8,0,0,0,.993,1.974c.072.07.209.189.411.37,2.955,2.644,4.737,4.46,5.3,5.406a21.052,21.052,0,0,0,3.565,4.053l1.489-1.708A20.972,20.972,0,0,1,89.313,215c-.135-.184-.259-.37-.369-.554-.912-1.526-3.544-3.97-5.737-5.93-.152-.138-.285-.255-.346-.313a6.545,6.545,0,0,1-.426-1.07,10,10,0,0,0-.5-1.3c-.13-.26-.271-.6-.435-.995a27.249,27.249,0,0,0-1.26-2.733l-.019-.037-.022-.035c-3.1-4.855-2.872-5.08-2.272-5.682a2.286,2.286,0,0,1,.261-.233c.058-.042.115-.081.172-.12a2.543,2.543,0,0,1,.8-.342,3.06,3.06,0,0,1,1.728.135,4.014,4.014,0,0,1,1.275.761A17.063,17.063,0,0,1,84.61,199.6c.713,1.057,1.426,2.205,2.067,3.236l.439.706.047.077s.058.068.058.068a17.323,17.323,0,0,0,9.758,5.4,29.534,29.534,0,0,1,10.259,5.075c2.565,2.259,7.293,7.963,7.716,9.559.136.5.3,1.024.5,1.625.326,1.012.717,2.232,1.13,3.919.346,1.418.707,3.162,1.055,5.4.05.332.1.733.15,1.185v5.084Zm42.7-50.978c.192-.426.414-.9.654-1.4,1.618-3.355,4.209-8.023,6-9.606a1.99,1.99,0,0,1,1.277-.5,33.4,33.4,0,0,0-4.514,7.656c-.3.71-.576,1.434-.821,2.182-.155.229-.3.448-.45.661l-3.786,4.267c.651-1.194,1.23-2.338,1.637-3.253Zm14.086-10.752c-2.562,5.9-6.059,13.9-6.455,14.707-.269.547-.483,1.1-.693,1.64a8.581,8.581,0,0,1-.752,1.644c-.59.819-5.758,8.931-6.35,9.9a10.093,10.093,0,0,0-.678,1.631c-.375,1.045-1,2.79-1.674,3.21a35.035,35.035,0,0,0-4.685,4.351c-1.3,1.315-2.771,2.808-4.477,4.451a52.4,52.4,0,0,1-5.284,4.349c-2.322,1.731-4.325,3.225-5.716,5.4-.817,1.27-1.105,4.022-1.114,7.188-.006,1,.02,2.129.062,3.256H120.468V235.85c.049-.452.1-.853.152-1.185.346-2.238.708-3.982,1.054-5.4.414-1.686.8-2.907,1.133-3.919.2-.6.36-1.122.494-1.625.426-1.6,5.148-7.3,7.718-9.559a29.53,29.53,0,0,1,10.258-5.075,17.314,17.314,0,0,0,9.76-5.4s.059-.068.056-.068l.051-.077.438-.706c.64-1.032,1.352-2.18,2.066-3.236a17.143,17.143,0,0,1,2.457-3.052,4,4,0,0,1,1.273-.761,3.043,3.043,0,0,1,1.724-.135,2.531,2.531,0,0,1,.8.342l.174.12a2.5,2.5,0,0,1,.261.233c.6.6.824.825-2.274,5.682l-.022.038-.017.037a26.971,26.971,0,0,0-1.263,2.733c-.164.393-.3.734-.435.995a10.442,10.442,0,0,0-.5,1.3,6.811,6.811,0,0,1-.423,1.07c-.063.058-.195.175-.347.313-2.193,1.96-4.828,4.4-5.737,5.93-.11.185-.237.37-.368.554a21.189,21.189,0,0,1-2.744,2.954l1.486,1.709a21.111,21.111,0,0,0,3.57-4.053c.565-.946,2.348-2.762,5.3-5.406.2-.181.338-.3.41-.37a4.827,4.827,0,0,0,1-1.974,8.615,8.615,0,0,1,.381-1c.169-.34.327-.72.5-1.159a25.875,25.875,0,0,1,1.15-2.489c3.273-5.141,3.844-6.544,1.936-8.458a5.17,5.17,0,0,0-.41-.364c.778-1.01,1.912-2.572,3.526-4.962l.092-.134.05-.157a29.121,29.121,0,0,1,3.078-6.537,31.877,31.877,0,0,1,2.416-3.35c.256-.3.509-.592.75-.855.277-.3.544-.581.8-.825s.493-.459.712-.639l.075-.065a2.16,2.16,0,0,1,2.482.207c-.293.665-.607,1.383-.935,2.137Z" transform="translate(-59.999 -143.393)" fill="#22d172"/>
</svg>
