<svg xmlns="http://www.w3.org/2000/svg" width="93.379" height="100" viewBox="0 0 93.379 100">
  <path id="Path_427" data-name="Path 427" d="M195.477,84.589c-.111-.038-.166-.166-.166-.387a1.947,1.947,0,0,1,.553-1.162q.83-1.107,1.328-.886l3.983,2.711a10.109,10.109,0,0,1,1.992,1.715q.773.885.663,1.273-.277.277-1.438,0a14.022,14.022,0,0,1-2.49-.83l-1.935-.886a20.011,20.011,0,0,1-2.49-1.548Zm5.476-27.057q-.83-1.108-.387-1.551a21.457,21.457,0,0,1,2.268-1.328l2.988-1.439a2.437,2.437,0,0,1,.83-.332c.664-.221,1.105-.258,1.327-.111l.056.277a2.734,2.734,0,0,1-.441,1l-.61.83-1.105,1.051a9.454,9.454,0,0,1-1.55,1.162l-2.047,1.383q-.441.222-1.328-.939Zm-48.791,48.694h.056a2.67,2.67,0,0,1,1.494,1.272,7.456,7.456,0,0,1,.828,1.881,6.2,6.2,0,0,1,.277,1.5q.11,2.433-.054,6.474a9.038,9.038,0,0,0,.608,4.372.532.532,0,0,0,.221.277l.166.221.443.277a4.021,4.021,0,0,0,1.714.277,28.986,28.986,0,0,0,4.648-.332,31.137,31.137,0,0,0,4.371-.941,16.484,16.484,0,0,0,3.541-1.328l.277-.166.277-.443.5-1.439a15.947,15.947,0,0,0,.387-3.264,18.827,18.827,0,0,0-.886-6.032,13.237,13.237,0,0,0-1.051-2.268,3.664,3.664,0,0,0-1.107-1.162,10.271,10.271,0,0,0-1.935-.553l-2.047-.167-3.706.112q-6.914.83-8.187.886h-.664a1.921,1.921,0,0,0-.167.552ZM170.75,73.634l.056.221v.11h-.056l-.111.112-.83.664a12.211,12.211,0,0,1-2.1,1.715,4.661,4.661,0,0,1-1.6.608,3.125,3.125,0,0,1-1,.057,2.651,2.651,0,0,1-1-.333,6,6,0,0,1-1.217-.94l-.828-.776A2.766,2.766,0,0,0,160.9,74.3a3.676,3.676,0,0,0-1.383.277,4.257,4.257,0,0,0-1.217.83l-1.217,1.66a4.122,4.122,0,0,1-2.323,1.329,9.78,9.78,0,0,1-2.268.166,7.288,7.288,0,0,1-2.1-.553l-.441-.166-.112-.111-.164-.056-.166-.111-.057.111a.712.712,0,0,0,0,.387l.443,2.767a26.31,26.31,0,0,0,1.383,5.091q.443,1.161,1.827,4.149,1.107,2.547,2.765,6.308a41.007,41.007,0,0,1,1.439,4.149,14.281,14.281,0,0,1,.443,2.326.22.22,0,0,0,.056.164q1.6-.5,3.042-.83a23.529,23.529,0,0,1,3.983-.663h.332a8.9,8.9,0,0,1,.387-1.383q.331-1,1.273-3.1a82.08,82.08,0,0,0,4.315-14.055l.828-3.432a25.572,25.572,0,0,0,.774-2.987q.222-1.66-.166-2.049-.165-.443-1.548-.553l-.277-.387Zm-45.307,9.739q.5-.222,1.383.886.885,1.161.332,1.55a14.278,14.278,0,0,1-2.49,1.494l-1.935.941a15.092,15.092,0,0,1-2.49.83,2.573,2.573,0,0,1-1.161.056l-.277-.111c-.074-.221.148-.627.663-1.217a10.028,10.028,0,0,1,2.047-1.771ZM115.65,56.092l-.609-.886a2.015,2.015,0,0,1-.387-1l.054-.277.277-.056a2.159,2.159,0,0,1,1,.166l3.872,1.771,2.213,1.383q.5.277-.387,1.55t-1.273.887l-2.1-1.384a9.358,9.358,0,0,1-1.55-1.162Zm65.831-8.522L176.5,44.637a39.95,39.95,0,0,0-5.312-1.827,34.162,34.162,0,0,0-10.675-.884,36.862,36.862,0,0,0-18.256,6.088,36.147,36.147,0,0,0-6.583,5.533L134.4,55.1q-1,1.273-1.217,1.606l-1.991,3.32a17.612,17.612,0,0,0-1.827,13,21.867,21.867,0,0,0,5.422,9.793,31.986,31.986,0,0,0,3.651,3.375q1.217,1,3.706,2.822,7.634,5.866,9.514,10.57a10.2,10.2,0,0,1,.83,4.648,7.088,7.088,0,0,1-.056.886l.387-.277a45.988,45.988,0,0,1,4.7-1.715l-.111-.221a21.367,21.367,0,0,0-.83-2.213q-1.826-3.817-1.825-3.874-1.937-3.6-3.21-6.088-1.66-3.264-2.047-4.2a23.808,23.808,0,0,1-1.715-5.368l-.664-3.265a3.743,3.743,0,0,1,.111-2.49l.277-.441.443-.277a2.246,2.246,0,0,1,1,0q.055,0,1.383.609l1,.5a4,4,0,0,0,1.439.277,3.25,3.25,0,0,0,1.439-.112,2.172,2.172,0,0,0,1-.663,16.7,16.7,0,0,1,1.162-1.606,6.5,6.5,0,0,1,2.158-1.6l1.217-.387.774-.111.831.053a5.265,5.265,0,0,1,2.6,1.439l1.439,1.273h.277a3.522,3.522,0,0,0,.609-.277,9.734,9.734,0,0,0,1.658-1.44l1.107-.94.387-.222.553-.221.664-.11a1.143,1.143,0,0,1,.5,0h-.111l.332.054a.214.214,0,0,0-.111-.054l.718.054a3.471,3.471,0,0,1,1,.222l1.051.5a5.245,5.245,0,0,1,.941.94,4.43,4.43,0,0,1,.719,2.158,12.1,12.1,0,0,1-.057,1.937q-.33,1.66-.828,3.43l-.774,3.265a81.21,81.21,0,0,1-4.481,14.608,14.479,14.479,0,0,1-1.827,3.043c-.036.074-.072.149-.111.222a12.13,12.13,0,0,1,1.992.277,9.809,9.809,0,0,1,.387-2.1,19.455,19.455,0,0,1,4.094-7.138q2.159-2.49,5.809-6.088,4.259-4.151,5.532-5.534a28.532,28.532,0,0,0,4.259-5.533,14.056,14.056,0,0,0,1.107-2.987l.609-3.155q.055-.5.056-3.208-.222-2.1-.443-3.21a23.3,23.3,0,0,0-2.047-5.977,24.242,24.242,0,0,0-7.47-9.294ZM176,51.72,174.179,51q-2.1-.553-2.877-.774l-2.933-.553-.553-.221.553-.221q.166-.055,1.051-.277.608-.11,2.047-.221a30.958,30.958,0,0,1,3.264.332q.553.11,2.158.553a19.383,19.383,0,0,1,2.433,1.051,15.289,15.289,0,0,1,5.2,4.372,15.472,15.472,0,0,1,3.1,8.467q0,1.937-1.494,1.88a1.425,1.425,0,0,1-1.217-.719,1.736,1.736,0,0,1-.277-.941A13.517,13.517,0,0,0,182.2,56.7a14.524,14.524,0,0,0-4.148-3.874A22.776,22.776,0,0,0,176,51.72ZM157.418,37.388q1-.11,2.932-.331h6.8l5.422.94a40.538,40.538,0,0,1,6.2,2.1l2.987,1.55q2.767,1.769,2.878,1.881a26.4,26.4,0,0,1,5.145,4.981,32.557,32.557,0,0,1,3.926,6.2A26.642,26.642,0,0,1,196.14,61.9a25.225,25.225,0,0,1,.5,7.913,9.481,9.481,0,0,1-.332,2.049,16.933,16.933,0,0,1-.443,2.047,17.584,17.584,0,0,1-1.548,4.04,39.4,39.4,0,0,1-5.035,6.641q-1.494,1.6-5.7,5.755-3.594,3.486-5.477,5.7a38.594,38.594,0,0,0-4.038,5.368q-.553.887-1.328,2.38l.5.609a13.812,13.812,0,0,1,1.66,3.1,20.157,20.157,0,0,1,1.493,7.361,15.3,15.3,0,0,1-.331,4.426l-.774,2.434-.387.664q-.443.664-.5.719l-.719.719-.609.443a21.029,21.029,0,0,1-4.758,2.047,49.4,49.4,0,0,1-4.978,1.217,32.814,32.814,0,0,1-5.643.443,11.127,11.127,0,0,1-3.652-.664,11.374,11.374,0,0,1-1.88-1.217,5.121,5.121,0,0,1-.719-.828,4.229,4.229,0,0,1-.609-.887A11.922,11.922,0,0,1,150,122.5q-.108-.387-.387-1.827l-.166-3.375q0-.055.057-3.1a23.414,23.414,0,0,0-.057-2.933l.057-2.324a5.78,5.78,0,0,1,.331-1.273,3.031,3.031,0,0,1,.886-1.273,1.257,1.257,0,0,1,.443-.22,8.924,8.924,0,0,0-1.051-5.977q-2.211-4.15-9.68-9.13-2.49-1.605-3.873-2.657a21.357,21.357,0,0,1-2.1-1.6l-2.1-1.937a28.518,28.518,0,0,1-3.818-4.814,21.135,21.135,0,0,1-2.765-6.365A19.77,19.77,0,0,1,125.165,66a23.6,23.6,0,0,1,2.49-8.023l2.157-3.82,2.822-3.652a40.424,40.424,0,0,1,7.3-6.364q.885-.608,4.425-2.6,1.6-.72,2.434-1.107l2.49-1,5.365-1.55q.114-.056,2.769-.5Zm-14-7.193.774.774c.405.515.7.922.886,1.217q.165.278.884,1.715a13.03,13.03,0,0,0,1.162,1.881q.277.277-.886,1.328a2.391,2.391,0,0,1-1.105.609c-.222.038-.35-.019-.387-.166a15.143,15.143,0,0,1-1.383-2.49q0-.11-.609-1.881l-.332-1.273a3.6,3.6,0,0,1-.221-.884,2.656,2.656,0,0,1-.166-.941l.056-.332h.277a2.142,2.142,0,0,1,1.051.444Zm39.165-2.159.111.277-.719,3.154q-.553,1.772-.609,1.827a12.613,12.613,0,0,1-1.382,2.49q-.387.608-1.55-.443-1.052-.885-.83-1.328a18.165,18.165,0,0,0,1.107-1.881q.775-1.438.941-1.715a8.6,8.6,0,0,1,.886-1.217l.774-.776a2.126,2.126,0,0,1,1.05-.443Z" transform="translate(-114.654 -27.982)" fill="#22d172" fill-rule="evenodd"/>
</svg>
