<svg xmlns="http://www.w3.org/2000/svg" width="103.129" height="101" viewBox="0 0 103.129 101">
  <g id="together" transform="translate(-70 -28.541)">
    <path id="Path_467" data-name="Path 467" d="M103.719,81.955a42.751,42.751,0,0,0-.57-11.229c-.685-4.08-2.33-10.9.043-14.454a2.768,2.768,0,0,1,.732-.771L88.232,42.654a.538.538,0,0,1,.682-.832l16.269,13.319c2.163-.008,3.33,1.11,4.859-1.618C112.454,49.217,116,39.954,119,36.857l-5.818-6.415a.536.536,0,0,1,.795-.719l5.825,6.422c3.724-2.776,8.094,1.318,7.109,5.593.162-.166.326-.322.492-.464,3.474-2.972,8.836.463,8.04,4.968,2.913-2.185,6.758.484,6.935,3.806a5.792,5.792,0,0,1,4.369,7.31c4.96,3.3,9.606,4.215,13.711,5.022,4.965.977,9.162,1.8,12.314,6.343l13-8.258a.538.538,0,0,1,.576.908l-14.559,9.249c-1.669,1.2.28,4.714,2.733,8.191,1.779,2.522,3.908,4.923,5.587,7.46l5.917-2.349a.536.536,0,0,1,.4,1l-5.774,2.292c.018.041.034.08.048.119,1.486,4.034-4.1,7.811-8.3,4.866a5.5,5.5,0,0,1,.25,1.231c.238,3.005-3.145,5.748-6.008,4.583a6.275,6.275,0,0,1-1.393-.816,4.927,4.927,0,0,1,.037,1.56,4.491,4.491,0,0,1-7.221,3.132,3.831,3.831,0,0,1-.1.641,4.267,4.267,0,0,1-5.244,3.037,9.3,9.3,0,0,1-3.926-2.575c-7.92,2.759-9.843,5.914-15.993,9.776-6.447,4.048-9.653,5.447-16.81,6.884l-1.412,3.922a.536.536,0,0,1-1.009-.361c.557-1.548,1.1-3.11,1.678-4.648a16.838,16.838,0,0,0,.911-2.849c.237-1.912-1.647-2.028-3.694-2.138-4.31-.232-12.852-.107-16.592-1.672L89.707,123.59a.538.538,0,0,1-.955-.5l6.18-11.713c-3.461-2.589-.349-7.313,3.627-7.559q-.131-.072-.254-.148a3.3,3.3,0,0,1-1.533-3.989A4.528,4.528,0,0,1,101.028,96a3.7,3.7,0,0,1-2.006-3.382,3.792,3.792,0,0,1,3.328-4.16c-2.241-1.806-1.415-5.474,1.372-6.5Zm-7.057,32.239a.322.322,0,0,1,.57.3l-3.116,6.067a.322.322,0,0,1-.57-.3Zm15.772-81.252a.322.322,0,0,1,.487-.422l3.589,4.15a.322.322,0,0,1-.487.422Zm68.193,51.372a.322.322,0,0,1-.25-.593l4.564-1.919a.322.322,0,0,1,.25.593ZM171.864,69.3c-2.907-4.149-6.9-4.935-11.615-5.863-4.14-.815-8.821-1.736-13.873-5.035-2.127,5.664-4.82,16.4-8.328,20.72a23.271,23.271,0,0,1-4.1,3.976c3.265,8.744,9.025,13.141,15.605,19.133a8.376,8.376,0,0,0,3.429,2.294,3.2,3.2,0,0,0,3.939-2.242c.316-1.315-.308-1.88-1.053-2.723l-6.413-7.252a.536.536,0,0,1,.8-.711l7.7,8.7c2.356,2.665,5.827,1.486,6.264-1.686a4.478,4.478,0,0,0-.936-3.254l-6.8-7.811a.537.537,0,0,1,.812-.7l6.8,7.8a9.326,9.326,0,0,0,2.954,2.373c2.116.86,4.706-1.3,4.531-3.5a5.311,5.311,0,0,0-.942-2.606c-1.733-2.508-4.957-6.285-7.068-8.846a.537.537,0,0,1,.829-.682c2.244,2.723,5,6.254,7.341,8.82,4.18,4.586,9.058.493,7.955-2.5-.561-1.523-4.745-6.431-6.043-8.27-2.765-3.919-4.857-7.951-2.5-9.672a8.183,8.183,0,0,1,.719-.462ZM115.619,88.342a.536.536,0,0,1,0,1.072l-10.956-.071c-2.43-.015-4.569.347-4.569,3.272,0,2.682,3.042,3.2,5.141,3.259,3.082.084,6.167.124,9.251.177a.536.536,0,0,1-.017,1.072c-3.142-.054-6.285-.1-9.427-.163-3.587-.073-6.433-.13-7.233,2.99-.933,3.636,4.472,3.939,6.823,4.036,3,.118,6,.209,9,.308a.537.537,0,0,1-.034,1.072c-4.438-.147-8.92-.233-13.35-.452-4.677-.363-7.465,4.441-4.092,5.956,3.356,1.507,12.361,1.421,16.363,1.636,2.481.133,4.993.584,4.744,3.143a12.8,12.8,0,0,1-.848,2.829c6.427-1.172,10.194-3.088,15.815-6.617,5.984-3.758,8.016-6.928,15.664-9.69-6.559-5.989-11.775-10.088-15.01-18.854a27.963,27.963,0,0,0-7.98-1.464c-4.089-.2-16.743-.343-20.827,1.163a2.68,2.68,0,0,0,.5,5.2c3.084.408,7.791.107,11.049.129Zm17.6-6.047a22,22,0,0,0,4-3.853c3.35-4.129,6.153-15.092,8.213-20.573,1.05-2.793.064-6.113-3.12-6.745-.737,4.12-4.55,10.244-6.365,14.481a.537.537,0,0,1-.989-.42c1.534-3.582,6.242-11.765,6.354-14.732.132-3.479-4.311-5.682-6.542-1.968L128.74,61.242a.537.537,0,0,1-.972-.459l6.039-12.82c2.35-4.989-2.765-8.39-5.706-5.875a10.067,10.067,0,0,0-2.358,3.058l-5.831,11.342a.536.536,0,0,1-.959-.479c1.907-3.8,3.924-7.61,5.75-11.443a14.966,14.966,0,0,0,1.1-2.93c.811-3.462-2.691-6.982-5.375-4.565-3.8,3.426-6.811,12.262-9.452,16.975-1.857,3.313-3.033,2.178-5.667,2.184a1.351,1.351,0,0,0-1.228.637c-2.128,3.19-.5,9.957.126,13.68a41.769,41.769,0,0,1,.6,11.088c5.25-1.15,14.577-1.122,20.14-.856a28.9,28.9,0,0,1,8.265,1.517Z" transform="translate(-14.633)" fill="#22d172" stroke="#22d172" stroke-width="2"/>
    <g id="Group_422" data-name="Group 422" transform="translate(70 129.519)">
      <path id="Path_468" data-name="Path 468" d="M.006-.038H0V-.044a.009.009,0,0,1,.006,0v0H0v.006h0v0Z" transform="translate(0 0.047)"/>
    </g>
    <g id="Group_423" data-name="Group 423" transform="translate(70.008 129.522)">
      <path id="Path_469" data-name="Path 469" d="M.006-.028a0,0,0,0,0,0,0v.006H0V-.031H.006Z" transform="translate(0 0.031)"/>
    </g>
    <g id="Group_424" data-name="Group 424" transform="translate(70.013 129.522)">
      <path id="Path_470" data-name="Path 470" d="M.006-.028H0v0h0v0H0v0l0,0A0,0,0,0,1,.006-.028Zm0,0H0v0Z" transform="translate(0 0.031)"/>
    </g>
    <g id="Group_425" data-name="Group 425" transform="translate(70.02 129.522)">
      <path id="Path_471" data-name="Path 471" d="M0-.028v0l0,0Zm0,0v0H0v0H0v0H0v0H.006Z" transform="translate(0 0.031)"/>
    </g>
    <g id="Group_426" data-name="Group 426" transform="translate(70.027 129.519)">
      <path id="Path_472" data-name="Path 472" d="M0-.047v0H0v.006H0V-.047Z" transform="translate(0 0.047)"/>
    </g>
    <g id="Group_427" data-name="Group 427" transform="translate(70.032 129.522)">
      <path id="Path_473" data-name="Path 473" d="M.006-.028H0v0h0v0H0v0l0,0A0,0,0,0,1,.006-.028Zm0,0H0v0Z" transform="translate(0 0.031)"/>
    </g>
    <g id="Group_428" data-name="Group 428" transform="translate(70.04 129.519)">
      <path id="Path_474" data-name="Path 474" d="M.006-.044v.006H0v0l0,0ZM0-.038l0,0H0v0Z" transform="translate(0 0.047)"/>
    </g>
    <g id="Group_429" data-name="Group 429" transform="translate(70.051 129.519)">
      <path id="Path_475" data-name="Path 475" d="M0-.038h0v0a0,0,0,0,0,0,0v.006ZM0-.044h0v.006H0V-.047H0Z" transform="translate(0 0.047)"/>
    </g>
    <g id="Group_430" data-name="Group 430" transform="translate(70.058 129.522)">
      <path id="Path_476" data-name="Path 476" d="M0-.031H0v0l0,0L0-.025v0H0v0H0Z" transform="translate(0 0.031)"/>
    </g>
    <g id="Group_431" data-name="Group 431" transform="translate(70.068 129.519)">
      <path id="Path_477" data-name="Path 477" d="M.006-.044H0v.006h0V-.044Zm0,0v0a0,0,0,0,1,0,0l0,0H0V-.044A.009.009,0,0,1,.006-.047Z" transform="translate(0 0.047)"/>
    </g>
    <g id="Group_432" data-name="Group 432" transform="translate(70.078 129.519)">
      <path id="Path_478" data-name="Path 478" d="M0-.047H0v.009H0Z" transform="translate(0 0.047)"/>
    </g>
    <g id="Group_433" data-name="Group 433" transform="translate(70.082 129.522)">
      <path id="Path_479" data-name="Path 479" d="M.006-.028H0v0h0v0H0v0l0,0A0,0,0,0,1,.006-.028Zm0,0H0v0Z" transform="translate(0 0.031)"/>
    </g>
    <g id="Group_434" data-name="Group 434" transform="translate(70.088 129.519)">
      <path id="Path_480" data-name="Path 480" d="M0-.047H0v.006l0,0,0,0,0,0,0,0v0H0Z" transform="translate(0 0.047)"/>
    </g>
    <g id="Group_435" data-name="Group 435" transform="translate(70.096 129.522)">
      <path id="Path_481" data-name="Path 481" d="M.006-.031v0a0,0,0,0,0,0,0v0h0v0H0v0H0v0H0v0H.006Z" transform="translate(0 0.031)"/>
    </g>
    <g id="Group_436" data-name="Group 436" transform="translate(70.102 129.522)">
      <path id="Path_482" data-name="Path 482" d="M0-.028v0l0,0Zm0,0v0H0v0H0v0H0v0H.006Z" transform="translate(0 0.031)"/>
    </g>
    <g id="Group_437" data-name="Group 437" transform="translate(70.109 129.522)">
      <path id="Path_483" data-name="Path 483" d="M.006-.028v0H0v0H0V-.031H.006Z" transform="translate(0 0.031)"/>
    </g>
    <g id="Group_438" data-name="Group 438" transform="translate(70.116 129.519)">
      <path id="Path_484" data-name="Path 484" d="M.006-.044v.006H0v0l0,0ZM0-.038l0,0H0v0Z" transform="translate(0 0.047)"/>
    </g>
    <g id="Group_439" data-name="Group 439" transform="translate(70.124 129.522)">
      <path id="Path_485" data-name="Path 485" d="M.006-.028a0,0,0,0,0,0,0v.006H0V-.031H.006Z" transform="translate(0 0.031)"/>
    </g>
    <g id="Group_440" data-name="Group 440" transform="translate(70.133 129.519)">
      <path id="Path_486" data-name="Path 486" d="M0-.047H0a0,0,0,0,1,0,0v0H0v0H0Zm0,0v0h0v0Z" transform="translate(0 0.047)"/>
    </g>
    <g id="Group_441" data-name="Group 441" transform="translate(70.141 129.522)">
      <path id="Path_487" data-name="Path 487" d="M0-.028v0l0,0Zm0,0v0H0v0H0v0H0v0H.006Z" transform="translate(0 0.031)"/>
    </g>
    <g id="Group_442" data-name="Group 442" transform="translate(70.148 129.522)">
      <path id="Path_488" data-name="Path 488" d="M.006-.028v0H0v0H0V-.031H.006Z" transform="translate(0 0.031)"/>
    </g>
    <g id="Group_443" data-name="Group 443" transform="translate(70.155 129.522)">
      <path id="Path_489" data-name="Path 489" d="M0-.028v0l0,0Zm0,0v0H0v0H0v0H0v0H.006Z" transform="translate(0 0.031)"/>
    </g>
    <g id="Group_444" data-name="Group 444" transform="translate(70.163 129.522)">
      <path id="Path_490" data-name="Path 490" d="M.006-.031v0a0,0,0,0,0,0,0v0h0v0H0v0H0v0H0v0H.006Z" transform="translate(0 0.031)"/>
    </g>
    <g id="Group_445" data-name="Group 445" transform="translate(70.169 129.522)">
      <path id="Path_491" data-name="Path 491" d="M0-.031v.006l0,0H0Zm0,0a0,0,0,0,1,0,0v0H0v0Z" transform="translate(0 0.031)"/>
    </g>
    <g id="Group_446" data-name="Group 446" transform="translate(70.176 129.522)">
      <path id="Path_492" data-name="Path 492" d="M0-.031H0v0l0,0v.006H0Z" transform="translate(0 0.031)"/>
    </g>
    <g id="Group_447" data-name="Group 447" transform="translate(70.183 129.522)">
      <path id="Path_493" data-name="Path 493" d="M.006-.031v0a0,0,0,0,0,0,0v0h0v0H0v0H0v0H0v0H.006Z" transform="translate(0 0.031)"/>
    </g>
    <g id="Group_448" data-name="Group 448" transform="translate(70.189 129.519)">
      <path id="Path_494" data-name="Path 494" d="M0-.047H0v.006l0,0,0,0,0,0,0,0v0H0Z" transform="translate(0 0.047)"/>
    </g>
    <g id="Group_449" data-name="Group 449" transform="translate(70.196 129.522)">
      <path id="Path_495" data-name="Path 495" d="M0-.031H0v0l0,0L0-.025v0H0v0H0Z" transform="translate(0 0.031)"/>
    </g>
    <g id="Group_450" data-name="Group 450" transform="translate(70.203 129.519)">
      <path id="Path_496" data-name="Path 496" d="M0-.044H0v.006H0Zm0,0H0v0H0Z" transform="translate(0 0.047)"/>
    </g>
    <g id="Group_451" data-name="Group 451" transform="translate(70 129.53)">
      <path id="Path_497" data-name="Path 497" d="M.006-.047v0H0v.006H0V-.044l0,0Z" transform="translate(0 0.047)"/>
    </g>
    <g id="Group_452" data-name="Group 452" transform="translate(70.004 129.533)">
      <path id="Path_498" data-name="Path 498" d="M.006-.028a0,0,0,0,0,0,0v.006H0V-.031H.006Z" transform="translate(0 0.031)"/>
    </g>
    <g id="Group_453" data-name="Group 453" transform="translate(70.01 129.533)">
      <path id="Path_499" data-name="Path 499" d="M0-.031v.006l0,0H0Zm0,0a0,0,0,0,1,0,0v0H0v0Z" transform="translate(0 0.031)"/>
    </g>
    <g id="Group_454" data-name="Group 454" transform="translate(70.017 129.533)">
      <path id="Path_500" data-name="Path 500" d="M.006-.031h0v0a0,0,0,0,0,0,0v0H0v0H0V-.031H.006Z" transform="translate(0 0.031)"/>
    </g>
    <g id="Group_455" data-name="Group 455" transform="translate(70.032 129.53)">
      <path id="Path_501" data-name="Path 501" d="M0-.047v0H0v.006H0V-.047Z" transform="translate(0 0.047)"/>
    </g>
    <g id="Group_456" data-name="Group 456" transform="translate(70.037 129.53)">
      <path id="Path_502" data-name="Path 502" d="M.006-.041v0H0v0H0V-.047H0v0h0Z" transform="translate(0 0.047)"/>
    </g>
    <g id="Group_457" data-name="Group 457" transform="translate(70.044 129.533)">
      <path id="Path_503" data-name="Path 503" d="M.006-.028H0v0h0v0H0v0l0,0A0,0,0,0,1,.006-.028Zm0,0H0v0Z" transform="translate(0 0.031)"/>
    </g>
    <g id="Group_458" data-name="Group 458" transform="translate(70.055 129.53)">
      <path id="Path_504" data-name="Path 504" d="M0-.047H0l0,.006V-.047h0v.009h0L0-.044v.006H0Z" transform="translate(0 0.047)"/>
    </g>
    <g id="Group_459" data-name="Group 459" transform="translate(70.064 129.533)">
      <path id="Path_505" data-name="Path 505" d="M0-.031v.006l0,0H0Zm0,0a0,0,0,0,1,0,0v0H0v0Z" transform="translate(0 0.031)"/>
    </g>
    <g id="Group_460" data-name="Group 460" transform="translate(70.071 129.533)">
      <path id="Path_506" data-name="Path 506" d="M0-.028v0H0v.006l0,0v0H0Z" transform="translate(0 0.031)"/>
    </g>
    <g id="Group_461" data-name="Group 461" transform="translate(70.079 129.533)">
      <path id="Path_507" data-name="Path 507" d="M.006-.028v0H0v0H0V-.031H.006Z" transform="translate(0 0.031)"/>
    </g>
    <g id="Group_462" data-name="Group 462" transform="translate(70.09 129.53)">
      <path id="Path_508" data-name="Path 508" d="M0-.047H0a0,0,0,0,1,0,0v0H0v0H0Zm0,0v0h0v0Z" transform="translate(0 0.047)"/>
    </g>
    <g id="Group_463" data-name="Group 463" transform="translate(70.098 129.533)">
      <path id="Path_509" data-name="Path 509" d="M.006-.028a0,0,0,0,0,0,0v.006H0V-.031H.006Z" transform="translate(0 0.031)"/>
    </g>
    <g id="Group_464" data-name="Group 464" transform="translate(70.103 129.533)">
      <path id="Path_510" data-name="Path 510" d="M0-.031v.006l0,0H0Zm0,0a0,0,0,0,1,0,0v0H0v0Z" transform="translate(0 0.031)"/>
    </g>
    <g id="Group_465" data-name="Group 465" transform="translate(70.11 129.53)">
      <path id="Path_511" data-name="Path 511" d="M0-.044H0v.006a0,0,0,0,1,0,0Zm0,0H0v0H0Z" transform="translate(0 0.047)"/>
    </g>
    <g id="Group_466" data-name="Group 466" transform="translate(70.113 129.533)">
      <path id="Path_512" data-name="Path 512" d="M.006-.028H0v0h0v0H0v0l0,0A0,0,0,0,1,.006-.028Zm0,0H0v0Z" transform="translate(0 0.031)"/>
    </g>
    <g id="Group_467" data-name="Group 467" transform="translate(70.121 129.533)">
      <path id="Path_513" data-name="Path 513" d="M.006-.031v0a0,0,0,0,0,0,0v.006h0v0H0v0l0,0Z" transform="translate(0 0.031)"/>
    </g>
    <g id="Group_468" data-name="Group 468" transform="translate(70.127 129.53)">
      <path id="Path_514" data-name="Path 514" d="M0-.047v0H0v.006H0V-.047Z" transform="translate(0 0.047)"/>
    </g>
  </g>
</svg>
