<svg xmlns="http://www.w3.org/2000/svg" width="114.509" height="100" viewBox="0 0 114.509 100">
  <g id="Group_547" data-name="Group 547" transform="translate(105.233 -7602.137)">
    <path id="Path_248" data-name="Path 248" d="M158.914,64.337A16.737,16.737,0,1,1,142.177,47.6a16.737,16.737,0,0,1,16.737,16.737" transform="translate(-221.612 7554.537)" fill="#22d172"/>
    <path id="Path_249" data-name="Path 249" d="M130.529,233.107a17.7,17.7,0,0,0-15.171-8.549H102.835a17.826,17.826,0,0,0-17.7,15.653L83.329,254.66a3.7,3.7,0,0,0,2.89,4.094,107.178,107.178,0,0,0,22.757,2.408c3.973,0,7.947-.241,11.8-.6l1.566-12.522a23.689,23.689,0,0,1,8.187-14.93Z" transform="translate(-188.531 7415.628)" fill="#22d172"/>
    <path id="Path_250" data-name="Path 250" d="M322.79,277.925l2.288-.12,1.806-1.566a11.3,11.3,0,0,1,2.167-1.445A17.675,17.675,0,0,0,312.8,264.319H300.514a17.826,17.826,0,0,0-17.7,15.653l-1.806,14.449a3.7,3.7,0,0,0,2.89,4.094,107.177,107.177,0,0,0,22.757,2.408H309.3a10.544,10.544,0,0,1,2.167-9.151l1.566-1.686.241-2.408a10.263,10.263,0,0,1,9.512-9.753Z" transform="translate(-343.707 7384.417)" fill="#22d172"/>
    <path id="Path_251" data-name="Path 251" d="M356.034,103.537A16.737,16.737,0,1,1,339.3,86.8a16.737,16.737,0,0,1,16.737,16.737" transform="translate(-376.348 7523.766)" fill="#22d172"/>
    <path id="Path_252" data-name="Path 252" d="M473.463,348.433l-1.566-1.806a5.166,5.166,0,0,1-1.2-2.89l-.241-2.408a5.15,5.15,0,0,0-4.7-4.7l-2.408-.241a5.156,5.156,0,0,1-2.89-1.2l-1.806-1.566a4.969,4.969,0,0,0-6.623,0l-1.806,1.566a5.166,5.166,0,0,1-2.89,1.2l-2.408.241a5.15,5.15,0,0,0-4.7,4.7l-.241,2.408a5.156,5.156,0,0,1-1.2,2.89l-1.566,1.806a4.969,4.969,0,0,0,0,6.623l1.566,1.806a5.166,5.166,0,0,1,1.2,2.89l.241,2.408a5.15,5.15,0,0,0,4.7,4.7l2.408.241a5.156,5.156,0,0,1,2.89,1.2l1.806,1.566a4.969,4.969,0,0,0,6.623,0l1.806-1.566a5.166,5.166,0,0,1,2.89-1.2l2.408-.241a5.15,5.15,0,0,0,4.7-4.7l.241-2.408a5.156,5.156,0,0,1,1.2-2.89l1.566-1.806A5.256,5.256,0,0,0,473.463,348.433Zm-16.737,11.2v2.047a.319.319,0,0,1-.361.361h-1.927a.319.319,0,0,1-.361-.361V359.63a4,4,0,0,1-3.732-3.612.319.319,0,0,1,.361-.361h1.927c.12,0,.361.12.361.241a1.41,1.41,0,0,0,1.325,1.083H456a2.071,2.071,0,0,0,2.047-1.686,1.967,1.967,0,0,0-1.927-2.167h-1.2a4.821,4.821,0,0,1-4.816-4.215,4.67,4.67,0,0,1,3.973-5.057V341.93a.319.319,0,0,1,.361-.361h1.927a.319.319,0,0,1,.361.361v1.927a4,4,0,0,1,3.732,3.612.319.319,0,0,1-.361.361h-1.927c-.12,0-.361-.12-.361-.241a1.41,1.41,0,0,0-1.325-1.083H454.8a2.071,2.071,0,0,0-2.047,1.686,1.967,1.967,0,0,0,1.927,2.167h1.445a4.493,4.493,0,0,1,4.576,5.057,4.858,4.858,0,0,1-3.973,4.215Z" transform="translate(-465.361 7331.007)" fill="#22d172"/>
  </g>
</svg>
