<svg xmlns="http://www.w3.org/2000/svg" width="63.67" height="100" viewBox="0 0 63.67 100">
  <g id="Group_546" data-name="Group 546" transform="translate(1063 -7342.103)">
    <g id="Group_543" data-name="Group 543" transform="translate(-1063 7342.103)">
      <path id="Path_384" data-name="Path 384" d="M225.91,0c0,11.931,5.681,15.341,14.773,13.069C241.251.569,229.319,2.273,225.91,0Z" transform="translate(-216.217 0)" fill="#22d172" fill-rule="evenodd"/>
      <path id="Path_385" data-name="Path 385" d="M210.3,114.092c0-5.681,1.136-6.25,3.977-10.8-1.136.568-3.977,2.273-3.977,1.7.569-10.227-3.977-26.705-13.636-31.818,14.2,17.045,14.773,52.841-3.409,66.477-4.545,3.977-4.545,5.114-7.386,10.227-4.545,6.819-6.819,6.819-14.2,8.523-.568.568,6.25,0,7.386-.568,5.114-1.7,7.386-3.409,10.227-7.386,1.7-2.841,2.273-.568,2.841,1.7,0,1.7,3.977,7.955,4.545,6.819s-6.819-5.681-1.136-13.069c1.136-1.7,3.977-2.841,5.114-2.273.568,0,3.409,2.273,3.409,2.841,1.7,2.841-3.409,2.841-3.977,4.545-.568.568,2.273,0,2.841,0a14.44,14.44,0,0,1,3.977-1.136c1.7,0,3.409,2.841,3.977,3.977a12.952,12.952,0,0,1,1.7,6.25c1.136-2.273,0-6.819-1.136-9.659-1.7-3.409-2.841-4.545-3.977-9.091a18.765,18.765,0,0,1,0-7.955c0-6.819,2.273-12.5,2.841-19.318Z" transform="translate(-171.629 -60.115)" fill="#22d172"/>
      <path id="Path_386" data-name="Path 386" d="M229.09,207.7c6.25,11.931,13.636,12.5,22.159,5.681C245.567,200.309,234.2,208.264,229.09,207.7Z" transform="translate(-218.829 -169.06)" fill="#22d172" fill-rule="evenodd"/>
      <path id="Path_387" data-name="Path 387" d="M434.085,180.267c-3.977,12.5-11.364,14.2-20.455,8.523C417.039,175.154,429.539,181.971,434.085,180.267Z" transform="translate(-370.415 -147.881)" fill="#22d172" fill-rule="evenodd"/>
      <path id="Path_388" data-name="Path 388" d="M387.84,81.992c-4.545,11.364-10.8,12.5-18.75,6.819C373.067,76.31,383.863,83.129,387.84,81.992Z" transform="translate(-333.829 -66.651)" fill="#22d172" fill-rule="evenodd"/>
      <path id="Path_389" data-name="Path 389" d="M235.45,95.453c.568,13.636,7.386,17.045,17.614,14.2C253.064,95.453,239.427,98.294,235.45,95.453Z" transform="translate(-224.053 -78.408)" fill="#22d172" fill-rule="evenodd"/>
      <path id="Path_390" data-name="Path 390" d="M345.686,9.547c-.569,11.364-6.25,14.2-14.773,11.364,0-11.931,11.364-9.091,14.773-11.364Z" transform="translate(-302.469 -7.842)" fill="#22d172" fill-rule="evenodd"/>
    </g>
  </g>
</svg>
