<svg xmlns="http://www.w3.org/2000/svg" width="97.662" height="100" viewBox="0 0 97.662 100">
  <g id="Group_545" data-name="Group 545" transform="translate(-369.082 -7336.103)">
    <path id="Path_515" data-name="Path 515" d="M186.672,238.394,172.437,214.78a4.209,4.209,0,0,0-5.779-1.432l-5.353,3.226a4.18,4.18,0,0,0-1.715,5.186l-1.552.749a3.432,3.432,0,0,1-2.688.119L144.28,218.46a12.908,12.908,0,0,0-7.445-.5l-3.764.862c-.412.094-.812.218-1.211.34h-3.293a19.946,19.946,0,0,0-5.655.83l-3.589,1.067h-1.811a4.157,4.157,0,0,0-1.929-4.481l-5.353-3.226a4.208,4.208,0,0,0-5.777,1.431L90.216,238.394a4.216,4.216,0,0,0,1.433,5.778L97,247.4a4.214,4.214,0,0,0,5.779-1.432l.356-.59,4.847,3.042,4.184,6.673a5.361,5.361,0,0,0,1.139,7.133l.288.231a5.368,5.368,0,0,0,2.784,1.143,5.819,5.819,0,0,0,7.279,4.956,5.813,5.813,0,0,0,7.212,3.841,5.443,5.443,0,0,0,4.834,2.959,5.552,5.552,0,0,0,.6-.033,5.425,5.425,0,0,0,3.672-2.016l.965-1.2,2.959,1.575a7.36,7.36,0,0,0,9.519-2.337,5.682,5.682,0,0,0,6.5-2.82,5.569,5.569,0,0,0,.516-1.458,6.03,6.03,0,0,0,1.112.115,6.116,6.116,0,0,0,6.107-6.459,6.152,6.152,0,0,0,4.033-2.971c2.312-4.148-.985-7.131-2.087-8.127l-.065-.057a7.272,7.272,0,0,1,4.3-4.048l.271.451a4.214,4.214,0,0,0,5.779,1.432l5.353-3.227a4.221,4.221,0,0,0,1.431-5.782ZM98.627,244.7l-5.352-3.227a1.062,1.062,0,0,1-.361-1.454l14.237-23.615a1.059,1.059,0,0,1,1.453-.36l5.353,3.226a1.059,1.059,0,0,1,.361,1.454l-14.235,23.613a1.063,1.063,0,0,1-1.456.361ZM115.28,259.77a2.26,2.26,0,0,1-.346-3.181l3.448-4.287a2.262,2.262,0,0,1,3.181-.345l.288.231a2.26,2.26,0,0,1,.346,3.181l-3.448,4.287a2.242,2.242,0,0,1-1.037.719,1.588,1.588,0,0,0-.166.046,2.256,2.256,0,0,1-1.979-.42Zm5.219,5.224a2.752,2.752,0,0,1-1.023-1.957,5.384,5.384,0,0,0,1.73-1.4l3.448-4.287a5.364,5.364,0,0,0,1.105-2.534,2.729,2.729,0,0,1,2.545.458,2.809,2.809,0,0,1,1.031,2.157,3.183,3.183,0,0,1-.072.639,2.634,2.634,0,0,1-.534,1.067l-4.37,5.434a2.213,2.213,0,0,1-.4.395,2.731,2.731,0,0,1-3.462.034Zm7.037,3.882a2.7,2.7,0,0,1-1-2.026c.09-.1.179-.188.272-.3l4.372-5.437a5.777,5.777,0,0,0,.893-1.537,2.713,2.713,0,0,1,2.569.463,2.757,2.757,0,0,1,1.031,2.143v.093a2.743,2.743,0,0,1-.605,1.625l-3.677,4.561a2.752,2.752,0,0,1-3.855.417Zm8.426,3.315a2.292,2.292,0,0,1-1.693-.494,2.265,2.265,0,0,1-.694-.965c.092-.1.189-.194.273-.3l3.681-4.564a5.888,5.888,0,0,0,1.132-2.371,2.31,2.31,0,0,1,2.172,3.725l-1.454,1.806a1.542,1.542,0,0,0-.137.17l-1.721,2.137a2.313,2.313,0,0,1-1.559.855Zm9.418-1.29-2.426-1.291.333-.414a5.483,5.483,0,0,0,1.114-2.467l6.109,3.243a4.222,4.222,0,0,1-5.13.93Zm23.561-14.688a2.989,2.989,0,0,1-3,1.488,2.766,2.766,0,0,1-1.031-.343l-13.088-7.309a1.575,1.575,0,0,0-1.536,2.751l13.075,7.3a5.735,5.735,0,0,0,1.119.483,2.981,2.981,0,0,1-.3,1.867,2.954,2.954,0,0,1-4.007,1.226l-13.246-7.013a1.575,1.575,0,0,0-1.475,2.784l11.989,6.347a2.465,2.465,0,0,1-.289,1.24,2.558,2.558,0,0,1-3.459,1.056l-.163-.087-.009-.006-.012-.005-9.957-5.285a5.362,5.362,0,0,0-5.02-2.363,5.94,5.94,0,0,0-1.9-2.759,5.86,5.86,0,0,0-4.25-1.278,5.853,5.853,0,0,0-7.049-4.636,7.017,7.017,0,0,0-1.784-2.172,5.287,5.287,0,0,0-3.977-1.163,5.376,5.376,0,0,0-3.635,1.99l-1.7,2.118-3.764-6a1.565,1.565,0,0,0-.5-.5l-5.2-3.263L115.9,224.206h3.655a1.582,1.582,0,0,0,.449-.065l3.8-1.132a17.253,17.253,0,0,1,1.835-.425,17.243,17.243,0,0,0-3.269,3.821l-3.733,5.922a4.273,4.273,0,0,0,1.269,5.829,8.856,8.856,0,0,0,10.006-.177l7.941-5.6,17.393,8.836,12.26,10.764c2.328,2.107,2,3.208,1.431,4.238Zm-1.867-8.812-9.9-8.689a1.535,1.535,0,0,0-.325-.221L138.5,229.167a1.576,1.576,0,0,0-1.683.085L128.1,235.4a5.72,5.72,0,0,1-6.464.115,1.108,1.108,0,0,1-.33-1.512l3.733-5.922a13.926,13.926,0,0,1,7.4-5.818l.01,0q.653-.218,1.332-.374l3.764-.862a9.749,9.749,0,0,1,5.631.38l11.07,4.168a6.6,6.6,0,0,0,5.167-.23l1.76-.849,11.026,18.292a10.343,10.343,0,0,0-5.119,4.611Zm16.54-5.926-5.353,3.227a1.063,1.063,0,0,1-1.456-.36l-.908-1.507-.006-.01-13.32-22.1a1.058,1.058,0,0,1,.361-1.453l5.353-3.226a1.05,1.05,0,0,1,.546-.153,1.1,1.1,0,0,1,.256.031,1.051,1.051,0,0,1,.652.481l14.234,23.613a1.061,1.061,0,0,1-.36,1.454Z" transform="translate(279.469 7160.748)" fill="#22d172"/>
    <path id="Path_516" data-name="Path 516" d="M266.188,53.521a1.587,1.587,0,0,0,.651,0,23.619,23.619,0,0,0,16.239-12.8,25.625,25.625,0,0,0,2.708-11.507,47.631,47.631,0,0,0-1.108-11.1,1.57,1.57,0,0,0-.831-1.042,42.5,42.5,0,0,0-34.664,0,1.573,1.573,0,0,0-.831,1.042,47.6,47.6,0,0,0-1.108,11.1,25.615,25.615,0,0,0,2.7,11.5,23.621,23.621,0,0,0,16.242,12.81ZM251.251,19.573a39.766,39.766,0,0,1,30.526,0,47.2,47.2,0,0,1,.857,9.641,22.484,22.484,0,0,1-2.373,10.1,20.515,20.515,0,0,1-13.747,11.058A20.519,20.519,0,0,1,252.761,39.3a22.47,22.47,0,0,1-2.369-10.087,47.3,47.3,0,0,1,.859-9.642Z" transform="translate(151.399 7322.727)" fill="#22d172"/>
    <path id="Path_517" data-name="Path 517" d="M301.315,80.7a1.574,1.574,0,0,0,2.227,0l13.739-13.74a1.575,1.575,0,1,0-2.228-2.228L302.429,77.358l-4.718-4.718a1.575,1.575,0,1,0-2.228,2.228Z" transform="translate(112.58 7281.377)" fill="#22d172"/>
  </g>
</svg>
